<?xml version="1.0" encoding="UTF-8"?>
<svg id="a" data-name="Ebene 1" xmlns="http://www.w3.org/2000/svg" width="49.999mm" height="19.999mm" xmlns:xlink="http://www.w3.org/1999/xlink" viewBox="0 0 141.73 56.69">
  <defs>
    <clipPath id="b">
      <rect x="6" y="4.118" width="129.152" height="50.571" fill="none"/>
    </clipPath>
    <clipPath id="c">
      <rect x="6" y="4.118" width="129.152" height="50.571" fill="none"/>
    </clipPath>
  </defs>
  <g clip-path="url(#b)">
    <path d="M52.787,29.404c0,6.004-2.487,11.445-6.484,15.353h-30.04c-3.995-3.908-6.479-9.351-6.479-15.353,0-11.848,9.657-21.505,21.499-21.505s21.504,9.657,21.504,21.505M56.568,29.406c0-13.93-11.362-25.285-25.285-25.285S6.003,15.477,6.003,29.406s11.355,25.281,25.28,25.281,25.285-11.363,25.285-25.281" fill="#3e984c"/>
    <path d="M52.787,29.404c0,6.004-2.487,11.445-6.484,15.353h-30.04c-3.995-3.908-6.479-9.351-6.479-15.353,0-11.848,9.657-21.505,21.499-21.505s21.504,9.657,21.504,21.505ZM56.568,29.406c0-13.93-11.362-25.285-25.285-25.285S6.003,15.477,6.003,29.406s11.355,25.281,25.28,25.281,25.285-11.363,25.285-25.281Z" fill="none" stroke="#3e984c" stroke-miterlimit="3.864" stroke-width=".007"/>
  </g>
  <polygon points="25.524 42.6 36.968 42.6 36.968 29.143 33.641 29.143 33.641 38.68 28.851 38.68 28.851 29.143 21.539 29.143 21.539 32.809 25.524 32.809 25.524 42.6" fill="#3e984c"/>
  <polygon points="25.524 42.6 36.968 42.6 36.968 29.143 33.641 29.143 33.641 38.68 28.851 38.68 28.851 29.143 21.539 29.143 21.539 32.809 25.524 32.809 25.524 42.6" fill="none" stroke="#3e984c" stroke-miterlimit="3.864" stroke-width=".007"/>
  <g clip-path="url(#c)">
    <path d="M50.635,29.363c0-9.864-7.429-18.044-16.994-19.213v17.58h3.307v-12.858c5.785,2.269,9.894,7.918,9.894,14.491,0,3.488-1.164,6.721-3.117,9.316h-5.347v3.92h6.98c3.271-3.471,5.277-8.115,5.277-13.236" fill="#3e984c"/>
    <path d="M50.635,29.363c0-9.864-7.429-18.044-16.994-19.213v17.58h3.307v-12.858c5.785,2.269,9.894,7.918,9.894,14.491,0,3.488-1.164,6.721-3.117,9.316h-5.347v3.92h6.98c3.271-3.471,5.277-8.115,5.277-13.236Z" fill="none" stroke="#3e984c" stroke-miterlimit="3.864" stroke-width=".007"/>
    <path d="M28.843,12.694v-2.531c-9.508,1.214-16.906,9.368-16.906,19.2,0,5.121,2.038,9.766,5.304,13.236h6.872v-3.92h-5.26c-1.954-2.596-3.118-5.828-3.118-9.316,0-6.549,4.082-12.171,9.836-14.465v6.683h3.272v-8.887Z" fill="#3e984c"/>
    <path d="M28.843,12.694v-2.531c-9.508,1.214-16.906,9.368-16.906,19.2,0,5.121,2.038,9.766,5.304,13.236h6.872v-3.92h-5.26c-1.954-2.596-3.118-5.828-3.118-9.316,0-6.549,4.082-12.171,9.836-14.465v6.683h3.272v-8.887Z" fill="none" stroke="#3e984c" stroke-miterlimit="3.864" stroke-width=".007"/>
    <path d="M78.475,27.741v-5.553h-2.592v3.745c-.682.2-1.27.295-1.766.281-1.534-.013-2.795-.485-3.786-1.416-1.025-.917-1.542-2.075-1.556-3.474.014-1.385.498-2.49,1.456-3.314.93-.822,2.166-1.24,3.704-1.254.877,0,1.807.164,2.791.492.248.087.621.218,1.114.392l.612-2.159c-.448-.201-.814-.358-1.103-.472-.288-.093-.591-.174-.904-.242-.877-.206-1.824-.31-2.843-.31-2.234-.013-4.001.588-5.299,1.806-1.501,1.373-2.25,3.1-2.25,5.182.02,2.128.734,3.83,2.138,5.1,1.386,1.305,3.216,1.965,5.493,1.98.99.013,2.127-.138,3.414-.453.168-.046.359-.097.583-.15.227-.065.49-.128.792-.18"/>
    <path d="M89.886,28.252v-9.912h-2.562v5.964l-.343.365c-1.078,1.166-1.879,1.742-2.405,1.728-.557.028-.826-.534-.812-1.686v-6.371h-2.562v7.287c0,1.86.895,2.789,2.686,2.789,1.18.015,2.326-.597,3.436-1.833v1.668h2.562Z"/>
    <path d="M102.489,21.444c-.027,2.992-1.63,4.502-4.811,4.529h-2.058v-9.007h2.058c1.467,0,2.551.267,3.254.804,1.011.803,1.529,2.027,1.557,3.674M105.29,21.423c-.014-1.834-.623-3.417-1.827-4.748-1.225-1.345-3.063-2.011-5.513-1.999h-5.041v13.576h5.022c2.424,0,4.25-.666,5.481-1.998,1.239-1.339,1.864-2.95,1.878-4.831"/>
    <path d="M135.151,36.756v-1.109h-8.379v1.109h3.53v9.486h1.317v-9.486h3.531ZM127.735,46.242v-1.107h-4.736v-9.488h-1.316v10.596h6.053ZM118.312,42.613v-6.967h-1.317v6.566c0,1.316-.096,1.685-.61,2.248-.529.594-1.3.916-2.215.916s-1.685-.322-2.216-.916c-.513-.562-.61-.932-.61-2.248v-6.566h-1.315v6.967c0,1.383.353,2.232,1.235,2.955.787.642,1.782.978,2.923.978s2.118-.336,2.905-.978c.883-.723,1.221-1.541,1.221-2.955M107.54,36.353c-.594-.353-.851-.48-1.284-.625-.546-.178-1.172-.258-1.782-.258-2.102,0-3.5,1.123-3.5,2.809,0,1.094.675,1.928,2.265,2.777.995.547,1.589.852,1.765.947.418.242.724.547.899.867.112.193.161.449.161.756,0,1.01-.756,1.603-2.008,1.603-.545,0-1.059-.096-1.524-.271-.369-.145-.626-.289-1.22-.691l-.675,1.043c.69.467.963.627,1.364.787.562.225,1.237.353,1.959.353,2.135,0,3.484-1.141,3.484-2.953,0-.771-.306-1.494-.819-1.928-.385-.336-.947-.689-1.67-1.074-2.151-1.141-2.616-1.541-2.616-2.328,0-.898.818-1.492,2.022-1.492.418,0,1.06.096,1.461.223.337.113.561.227,1.107.547l.61-1.092ZM97.94,46.34v-10.693h-1.316v8.975c-.032-.065-.048-.129-.064-.16-.113-.305-.13-.322-.193-.482-.048-.096-.096-.191-.145-.256l-5.25-8.076h-1.718v10.596h1.317v-9.182c.063.209.096.289.16.4.016.065.063.129.129.24.08.162.16.289.208.369l5.346,8.27h1.525ZM85.114,40.945c0,2.393-1.75,4.35-3.869,4.35-2.135,0-3.885-1.957-3.885-4.35,0-2.377,1.75-4.336,3.885-4.336,2.119,0,3.869,1.959,3.869,4.336M86.56,40.945c0-3.18-2.233-5.49-5.315-5.49s-5.33,2.311-5.33,5.49,2.248,5.506,5.33,5.506,5.315-2.312,5.315-5.506M74.6,36.467c-.53-.369-.756-.498-1.221-.658-.626-.242-1.3-.354-1.991-.354-3.034,0-5.329,2.344-5.329,5.441,0,3.26,2.263,5.555,5.458,5.555.497,0,.931-.049,1.461-.176.529-.129.785-.225,1.428-.514l-.369-1.029c-.852.355-1.541.498-2.44.498-2.488,0-4.11-1.75-4.11-4.414,0-2.424,1.606-4.158,3.853-4.158,1.028,0,1.798.24,2.601.803l.658-.994Z"/>
  </g>
</svg>