<?xml version="1.0" encoding="UTF-8" standalone="no"?>
<svg
   width="74.972mm"
   height="9.3599997mm"
   viewBox="0 0 74.972 9.3599995"
   version="1.1"
   id="svg8"
   xmlns="http://www.w3.org/2000/svg"
   xmlns:svg="http://www.w3.org/2000/svg"
   xmlns:rdf="http://www.w3.org/1999/02/22-rdf-syntax-ns#"
   xmlns:cc="http://creativecommons.org/ns#"
   xmlns:dc="http://purl.org/dc/elements/1.1/">
  <defs
     id="defs2">
    <rect
       x="-110.12522"
       y="-149.20663"
       width="560.61786"
       height="90.687378"
       id="rect147" />
    <rect
       x="-164.76808"
       y="-277.77805"
       width="329.46429"
       height="63.214287"
       id="rect141" />
    <rect
       x="13.198227"
       y="49.359245"
       width="217.43533"
       height="50.570763"
       id="rect426" />
    <g
       id="g94">
      <symbol
         overflow="visible"
         id="glyph0-0">
        <path
           style="stroke:none"
           d="M 6.515625,4.203125 V -12.59375 H 1.46875 V 4.203125 Z m -4.375,-16.171875 H 5.875 V 3.578125 H 2.140625 Z m 1.75,6.5625 c -0.46875,0 -1.125,0.140625 -1.125,0.46875 0,0.15625 0.109375,0.265625 0.296875,0.265625 0.046875,0 0.09375,-0.015625 0.15625,-0.03125 0.203125,-0.09375 0.375,-0.140625 0.625,-0.140625 0.59375,0 0.734375,0.375 0.734375,0.828125 0,0.640625 -0.234375,0.890625 -1.09375,0.9375 v 1 c 0,0.1875 0.140625,0.296875 0.296875,0.296875 0.140625,0 0.296875,-0.109375 0.296875,-0.296875 v -0.53125 c 0.8125,-0.125 1.140625,-0.578125 1.140625,-1.421875 0,-0.71875 -0.296875,-1.375 -1.328125,-1.375 z M 3.78125,-1.4375 c -0.234375,0 -0.421875,0.171875 -0.421875,0.421875 0,0.25 0.1875,0.4375 0.421875,0.4375 0.234375,0 0.421875,-0.1875 0.421875,-0.4375 0,-0.25 -0.1875,-0.421875 -0.421875,-0.421875 z m 0,0"
           id="path10" />
      </symbol>
      <symbol
         overflow="visible"
         id="glyph0-1">
        <path
           style="stroke:none"
           d="M 3.421875,-8.296875 H 0.96875 V 0 H 2.5625 v -2.890625 h 0.96875 c 1.875,0 3.25,-0.859375 3.25,-2.765625 0,-1.78125 -1.265625,-2.640625 -3.359375,-2.640625 z M 3.40625,-4.078125 H 2.5625 V -7.125 h 0.84375 c 1.078125,0 1.71875,0.421875 1.71875,1.46875 0,1.21875 -0.65625,1.578125 -1.71875,1.578125 z m 0,0"
           id="path13" />
      </symbol>
      <symbol
         overflow="visible"
         id="glyph0-2">
        <path
           style="stroke:none"
           d="m 4.0625,-6.515625 c -0.75,0 -1.359375,0.5 -1.65625,1.421875 L 2.25,-6.34375 H 0.921875 V 0 h 1.53125 v -3.390625 c 0.25,-1.0625 0.640625,-1.625 1.40625,-1.625 0.21875,0 0.375,0.03125 0.5625,0.078125 l 0.265625,-1.5 C 4.484375,-6.484375 4.28125,-6.515625 4.0625,-6.515625 Z m 0,0"
           id="path16" />
      </symbol>
      <symbol
         overflow="visible"
         id="glyph0-3">
        <path
           style="stroke:none"
           d="m 3.515625,-6.53125 c -1.890625,0 -3,1.359375 -3,3.34375 0,2.09375 1.109375,3.375 2.984375,3.375 1.875,0 2.984375,-1.359375 2.984375,-3.375 0,-2.0625 -1.09375,-3.34375 -2.96875,-3.34375 z m 0,1.171875 c 0.890625,0 1.359375,0.671875 1.359375,2.171875 0,1.515625 -0.46875,2.203125 -1.375,2.203125 -0.890625,0 -1.359375,-0.671875 -1.359375,-2.203125 0,-1.5 0.46875,-2.171875 1.375,-2.171875 z m 0,0"
           id="path19" />
      </symbol>
      <symbol
         overflow="visible"
         id="glyph0-4">
        <path
           style="stroke:none"
           d="m 3.484375,-7.890625 c 0.3125,0 0.671875,0.046875 1.046875,0.234375 L 4.984375,-8.6875 c -0.5,-0.234375 -1.015625,-0.375 -1.640625,-0.375 -1.46875,0 -2.234375,0.859375 -2.234375,2.015625 V -6.34375 H 0.078125 V -5.25 h 1.03125 V 0 h 1.53125 V -5.25 H 4 L 4.15625,-6.34375 H 2.640625 v -0.671875 c 0,-0.609375 0.234375,-0.875 0.84375,-0.875 z m 0,0"
           id="path22" />
      </symbol>
      <symbol
         overflow="visible"
         id="glyph0-5">
        <path
           style="stroke:none"
           d="m 1.421875,-1.765625 c -0.53125,0 -0.953125,0.4375 -0.953125,0.96875 0,0.53125 0.421875,0.984375 0.953125,0.984375 0.5625,0 0.984375,-0.453125 0.984375,-0.984375 0,-0.53125 -0.421875,-0.96875 -0.984375,-0.96875 z m 0,0"
           id="path25" />
      </symbol>
      <symbol
         overflow="visible"
         id="glyph0-6">
        <path
           style="stroke:none"
           d=""
           id="path28" />
      </symbol>
      <symbol
         overflow="visible"
         id="glyph0-7">
        <path
           style="stroke:none"
           d="m 5.84375,-0.5 c 1.109375,-0.59375 1.9375,-1.625 1.9375,-3.65625 0,-2.765625 -1.40625,-4.3125 -3.625,-4.3125 -2.21875,0 -3.640625,1.609375 -3.640625,4.328125 0,2.765625 1.421875,4.28125 3.546875,4.28125 1.546875,0 2.328125,0.53125 3.15625,1.390625 L 8.203125,0.234375 C 7.578125,-0.203125 6.875,-0.5 5.84375,-0.5 Z M 2.1875,-4.140625 c 0,-2.234375 0.734375,-3.125 1.96875,-3.125 1.25,0 1.953125,0.890625 1.953125,3.109375 0,2.25 -0.71875,3.125 -1.953125,3.125 -1.21875,0 -1.96875,-0.875 -1.96875,-3.109375 z m 0,0"
           id="path31" />
      </symbol>
      <symbol
         overflow="visible"
         id="glyph0-8">
        <path
           style="stroke:none"
           d="M 6,0 V -6.34375 H 4.46875 v 4.453125 c -0.34375,0.5625 -0.765625,0.90625 -1.28125,0.90625 -0.53125,0 -0.78125,-0.25 -0.78125,-1 V -6.34375 H 0.859375 v 4.5625 c 0,1.21875 0.625,1.96875 1.78125,1.96875 0.859375,0 1.46875,-0.359375 1.9375,-1.078125 L 4.671875,0 Z m 0,0"
           id="path34" />
      </symbol>
      <symbol
         overflow="visible"
         id="glyph0-9">
        <path
           style="stroke:none"
           d="m 1.6875,-9.5625 c -0.578125,0 -0.96875,0.40625 -0.96875,0.9375 0,0.515625 0.390625,0.921875 0.96875,0.921875 0.5625,0 0.96875,-0.40625 0.96875,-0.921875 0,-0.53125 -0.40625,-0.9375 -0.96875,-0.9375 z M 2.453125,0 V -6.34375 H 0.921875 V 0 Z m 0,0"
           id="path37" />
      </symbol>
      <symbol
         overflow="visible"
         id="glyph0-10">
        <path
           style="stroke:none"
           d="m 3.484375,-6.53125 c -1.828125,0 -2.96875,1.390625 -2.96875,3.40625 0,2.03125 1.140625,3.3125 2.96875,3.3125 0.828125,0 1.484375,-0.265625 2.0625,-0.734375 L 4.84375,-1.5625 c -0.453125,0.34375 -0.78125,0.5 -1.265625,0.5 -0.859375,0 -1.4375,-0.546875 -1.4375,-2.078125 0,-1.53125 0.546875,-2.171875 1.4375,-2.171875 0.484375,0 0.859375,0.140625 1.265625,0.46875 l 0.703125,-0.9375 c -0.609375,-0.515625 -1.234375,-0.75 -2.0625,-0.75 z m 0,0"
           id="path40" />
      </symbol>
      <symbol
         overflow="visible"
         id="glyph0-11">
        <path
           style="stroke:none"
           d="m 2.453125,0 v -9.0625 l -1.53125,0.171875 V 0 Z M 4.15625,-3.546875 6.265625,-6.34375 h -1.625 l -2.125,2.875 L 4.703125,0 H 6.46875 Z m 0,0"
           id="path43" />
      </symbol>
      <symbol
         overflow="visible"
         id="glyph0-12">
        <path
           style="stroke:none"
           d="M 2.5625,0 V -8.296875 H 0.96875 V 0 Z m 1.78125,-4.53125 2.875,-3.765625 H 5.5 l -2.875,3.875 L 5.5625,0 h 1.875 z m 0,0"
           id="path46" />
      </symbol>
      <symbol
         overflow="visible"
         id="glyph0-13">
        <path
           style="stroke:none"
           d="M 2.40625,-1.546875 V -9.0625 L 0.859375,-8.890625 V -1.4375 c 0,1.046875 0.546875,1.625 1.5,1.625 C 2.75,0.1875 3.125,0.09375 3.4375,-0.03125 L 3.125,-1.109375 c -0.109375,0.03125 -0.25,0.046875 -0.359375,0.046875 -0.25,0 -0.359375,-0.140625 -0.359375,-0.484375 z m 0,0"
           id="path49" />
      </symbol>
      <symbol
         overflow="visible"
         id="glyph0-14">
        <path
           style="stroke:none"
           d="m 6.125,-3.328125 c 0,-2 -1.015625,-3.203125 -2.78125,-3.203125 -1.8125,0 -2.828125,1.46875 -2.828125,3.40625 0,2 1.0625,3.3125 3.03125,3.3125 0.953125,0 1.71875,-0.359375 2.34375,-0.859375 L 5.25,-1.546875 c -0.546875,0.390625 -1.015625,0.5625 -1.578125,0.5625 -0.84375,0 -1.453125,-0.421875 -1.5625,-1.71875 H 6.09375 C 6.109375,-2.875 6.125,-3.125 6.125,-3.328125 Z m -1.515625,-0.375 h -2.5 C 2.203125,-4.953125 2.65625,-5.4375 3.375,-5.4375 c 0.859375,0 1.234375,0.625 1.234375,1.671875 z m 0,0"
           id="path52" />
      </symbol>
      <symbol
         overflow="visible"
         id="glyph0-15">
        <path
           style="stroke:none"
           d="m 6.4375,-6.015625 -0.375,-1.21875 c -0.765625,0.40625 -1.46875,0.75 -2.96875,0.703125 -1.53125,0 -2.625,0.90625 -2.625,2.28125 0,0.8125 0.328125,1.375 1.109375,1.796875 -0.46875,0.28125 -0.734375,0.71875 -0.734375,1.171875 0,0.65625 0.53125,1.21875 1.8125,1.21875 h 0.953125 c 0.703125,0 1.078125,0.296875 1.078125,0.765625 0,0.5 -0.359375,0.828125 -1.59375,0.828125 -1.25,0 -1.53125,-0.265625 -1.53125,-0.90625 h -1.375 c 0,1.265625 0.625,1.984375 2.890625,1.984375 2.0625,0 3.15625,-0.75 3.15625,-2.015625 0,-1.046875 -0.90625,-1.8125 -2.3125,-1.8125 h -0.96875 c -0.640625,0 -0.765625,-0.203125 -0.765625,-0.4375 0,-0.1875 0.109375,-0.359375 0.265625,-0.46875 0.234375,0.078125 0.46875,0.09375 0.75,0.09375 1.59375,0 2.5625,-0.890625 2.5625,-2.125 0,-0.796875 -0.390625,-1.296875 -1.15625,-1.640625 0.75,0 1.359375,-0.046875 1.828125,-0.21875 z m -3.3125,0.53125 c 0.765625,0 1.140625,0.390625 1.140625,1.203125 0,0.796875 -0.390625,1.25 -1.125,1.25 -0.703125,0 -1.125,-0.46875 -1.125,-1.234375 0,-0.734375 0.40625,-1.21875 1.109375,-1.21875 z m 0,0"
           id="path55" />
      </symbol>
      <symbol
         overflow="visible"
         id="glyph0-16">
        <path
           style="stroke:none"
           d="m 4.3125,-6.53125 c -0.8125,0 -1.4375,0.375 -1.9375,1.015625 L 2.25,-6.34375 H 0.921875 V 0 h 1.53125 V -4.421875 C 2.828125,-5 3.234375,-5.375 3.796875,-5.375 c 0.46875,0 0.78125,0.234375 0.78125,1.015625 V 0 h 1.53125 v -4.59375 c 0,-1.21875 -0.65625,-1.9375 -1.796875,-1.9375 z m 0,0"
           id="path58" />
      </symbol>
      <symbol
         overflow="visible"
         id="glyph0-17">
        <path
           style="stroke:none"
           d="M 2.5625,0 V -8.296875 H 0.96875 V 0 Z m 0,0"
           id="path61" />
      </symbol>
      <symbol
         overflow="visible"
         id="glyph0-18">
        <path
           style="stroke:none"
           d="m 4.296875,-8.46875 c -2.046875,0 -3.78125,1.515625 -3.78125,4.3125 0,2.84375 1.296875,4.34375 3.59375,4.34375 1.140625,0 2.125,-0.3125 2.921875,-0.828125 V -4.6875 H 4.0625 l 0.15625,1.171875 h 1.25 v 2.15625 C 5.078125,-1.125 4.625,-1.03125 4.15625,-1.03125 c -1.296875,0 -1.96875,-0.859375 -1.96875,-3.125 0,-2.234375 1,-3.109375 2.1875,-3.109375 0.703125,0 1.171875,0.203125 1.71875,0.671875 L 6.953125,-7.5 C 6.265625,-8.09375 5.46875,-8.46875 4.296875,-8.46875 Z m 0,0"
           id="path64" />
      </symbol>
      <symbol
         overflow="visible"
         id="glyph1-0">
        <path
           style="stroke:none"
           d="M 6.515625,4.203125 V -12.59375 H 1.46875 V 4.203125 Z m -4.375,-16.171875 H 5.875 V 3.578125 H 2.140625 Z m 1.75,6.5625 c -0.46875,0 -1.125,0.140625 -1.125,0.46875 0,0.15625 0.109375,0.265625 0.296875,0.265625 0.046875,0 0.09375,-0.015625 0.15625,-0.03125 0.203125,-0.09375 0.375,-0.140625 0.625,-0.140625 0.59375,0 0.734375,0.375 0.734375,0.828125 0,0.640625 -0.234375,0.890625 -1.09375,0.9375 v 1 c 0,0.1875 0.140625,0.296875 0.296875,0.296875 0.140625,0 0.296875,-0.109375 0.296875,-0.296875 v -0.53125 c 0.8125,-0.125 1.140625,-0.578125 1.140625,-1.421875 0,-0.71875 -0.296875,-1.375 -1.328125,-1.375 z M 3.78125,-1.4375 c -0.234375,0 -0.421875,0.171875 -0.421875,0.421875 0,0.25 0.1875,0.4375 0.421875,0.4375 0.234375,0 0.421875,-0.1875 0.421875,-0.4375 0,-0.25 -0.1875,-0.421875 -0.421875,-0.421875 z m 0,0"
           id="path67" />
      </symbol>
      <symbol
         overflow="visible"
         id="glyph1-1">
        <path
           style="stroke:none"
           d=""
           id="path70" />
      </symbol>
      <symbol
         overflow="visible"
         id="glyph1-2">
        <path
           style="stroke:none"
           d="M 5.84375,0 V -6.328125 H 4.734375 V -1.8125 c -0.375,0.640625 -0.890625,1.09375 -1.578125,1.09375 -0.6875,0 -0.96875,-0.328125 -0.96875,-1.1875 V -6.328125 H 1.078125 v 4.546875 c 0,1.234375 0.65625,1.921875 1.765625,1.921875 0.90625,0 1.484375,-0.359375 1.96875,-1.125 L 4.890625,0 Z m 0,0"
           id="path73" />
      </symbol>
      <symbol
         overflow="visible"
         id="glyph1-3">
        <path
           style="stroke:none"
           d="m 4.109375,-6.46875 c -0.828125,0 -1.5,0.4375 -1.921875,1.078125 l -0.09375,-0.9375 H 1.140625 V 0 H 2.25 v -4.484375 c 0.40625,-0.671875 0.890625,-1.125 1.609375,-1.125 0.609375,0 0.984375,0.28125 0.984375,1.234375 V 0 h 1.109375 v -4.53125 c 0,-1.203125 -0.671875,-1.9375 -1.84375,-1.9375 z m 0,0"
           id="path76" />
      </symbol>
      <symbol
         overflow="visible"
         id="glyph1-4">
        <path
           style="stroke:none"
           d="M 6.03125,-8.875 4.9375,-9 v 3.3125 C 4.515625,-6.125 3.96875,-6.46875 3.234375,-6.46875 1.6875,-6.46875 0.75,-5.0625 0.75,-3.125 c 0,1.96875 0.84375,3.265625 2.375,3.265625 0.78125,0 1.421875,-0.375 1.828125,-1.015625 L 5.0625,0 H 6.03125 Z M 3.375,-0.734375 c -0.921875,0 -1.4375,-0.75 -1.4375,-2.421875 0,-1.640625 0.578125,-2.4375 1.53125,-2.4375 0.625,0 1.0625,0.328125 1.46875,0.828125 v 3.09375 c -0.421875,0.59375 -0.859375,0.9375 -1.5625,0.9375 z m 0,0"
           id="path79" />
      </symbol>
      <symbol
         overflow="visible"
         id="glyph1-5">
        <path
           style="stroke:none"
           d="m 4.21875,-8.40625 c -1.859375,0 -3.5625,1.484375 -3.5625,4.265625 0,2.859375 1.328125,4.28125 3.390625,4.28125 1.15625,0 2.03125,-0.28125 2.78125,-0.734375 v -3.984375 h -2.71875 l 0.125,0.921875 h 1.46875 v 2.484375 c -0.46875,0.265625 -1.015625,0.375 -1.578125,0.375 -1.453125,0 -2.25,-0.96875 -2.25,-3.34375 0,-2.4375 1.1875,-3.328125 2.375,-3.328125 0.734375,0 1.234375,0.203125 1.8125,0.671875 L 6.734375,-7.5 C 6.03125,-8.09375 5.34375,-8.40625 4.21875,-8.40625 Z m 0,0"
           id="path82" />
      </symbol>
      <symbol
         overflow="visible"
         id="glyph1-6">
        <path
           style="stroke:none"
           d="m 7.484375,-6.46875 c -0.84375,0 -1.421875,0.453125 -1.875,1.140625 -0.25,-0.71875 -0.828125,-1.140625 -1.59375,-1.140625 -0.828125,0 -1.40625,0.4375 -1.828125,1.0625 L 2.09375,-6.328125 H 1.140625 V 0 H 2.25 v -4.484375 c 0.40625,-0.671875 0.796875,-1.125 1.484375,-1.125 0.484375,0 0.890625,0.28125 0.890625,1.234375 V 0 h 1.09375 v -4.484375 c 0.4375,-0.671875 0.8125,-1.125 1.5,-1.125 0.46875,0 0.875,0.28125 0.875,1.234375 V 0 h 1.109375 v -4.53125 c 0,-1.1875 -0.6875,-1.9375 -1.71875,-1.9375 z m 0,0"
           id="path85" />
      </symbol>
      <symbol
         overflow="visible"
         id="glyph1-7">
        <path
           style="stroke:none"
           d="m 4.03125,-6.46875 c -0.765625,0 -1.359375,0.34375 -1.78125,0.9375 V -9 L 1.140625,-8.875 V 0 h 0.96875 L 2.21875,-0.703125 c 0.4375,0.53125 0.984375,0.84375 1.6875,0.84375 1.53125,0 2.484375,-1.328125 2.484375,-3.3125 0,-2.109375 -0.9375,-3.296875 -2.359375,-3.296875 z m -0.390625,5.734375 c -0.5625,0 -1.078125,-0.34375 -1.390625,-0.84375 v -3.03125 c 0.3125,-0.5 0.78125,-0.984375 1.46875,-0.984375 0.890625,0 1.484375,0.625 1.484375,2.421875 0,1.734375 -0.640625,2.4375 -1.5625,2.4375 z m 0,0"
           id="path88" />
      </symbol>
      <symbol
         overflow="visible"
         id="glyph1-8">
        <path
           style="stroke:none"
           d="M 5.8125,-3.875 V 0 H 6.953125 V -8.265625 H 5.8125 V -4.8125 H 2.34375 V -8.265625 H 1.203125 V 0 H 2.34375 v -3.875 z m 0,0"
           id="path91" />
      </symbol>
    </g>
    <rect
       x="-110.12522"
       y="-149.20663"
       width="560.61786"
       height="90.687378"
       id="rect147-5" />
    <rect
       x="-110.12522"
       y="-149.20663"
       width="560.61786"
       height="90.687378"
       id="rect1014" />
    <rect
       x="-110.12522"
       y="-149.20663"
       width="560.61786"
       height="90.687378"
       id="rect147-3" />
    <rect
       x="-110.12522"
       y="-149.20663"
       width="560.61786"
       height="90.687378"
       id="rect1469" />
    <rect
       x="-110.12522"
       y="-149.20663"
       width="560.61786"
       height="90.687378"
       id="rect147-4" />
    <rect
       x="-110.12522"
       y="-149.20663"
       width="560.61786"
       height="90.687378"
       id="rect1567" />
    <rect
       x="-110.12522"
       y="-149.20663"
       width="560.61786"
       height="90.687378"
       id="rect147-5-1" />
    <rect
       x="-110.12522"
       y="-149.20663"
       width="560.61786"
       height="90.687378"
       id="rect1570" />
    <rect
       x="-110.12522"
       y="-149.20663"
       width="560.61786"
       height="90.687378"
       id="rect147-53" />
    <rect
       x="-110.12522"
       y="-149.20663"
       width="560.61786"
       height="90.687378"
       id="rect1695" />
    <rect
       x="-110.12522"
       y="-149.20663"
       width="560.61786"
       height="90.687378"
       id="rect147-5-0" />
    <rect
       x="-110.12522"
       y="-149.20663"
       width="560.61786"
       height="90.687378"
       id="rect1698" />
  </defs>
  <metadata
     id="metadata5">
    <rdf:RDF>
      <cc:Work
         rdf:about="">
        <dc:format>image/svg+xml</dc:format>
        <dc:type
           rdf:resource="http://purl.org/dc/dcmitype/StillImage" />
      </cc:Work>
    </rdf:RDF>
  </metadata>
  <g
     id="layer1">
    <g
       id="surface31856"
       transform="matrix(0.35277778,0,0,0.35277778,338.58485,131.25583)">
      <text
         xml:space="preserve"
         id="text424"
         style="font-style:normal;font-variant:normal;font-weight:normal;font-stretch:normal;font-size:30px;line-height:1.25;font-family:'Meta Pro';-inkscape-font-specification:'Meta Pro';white-space:pre;shape-inside:url(#rect426);display:inline;fill:#000000;fill-opacity:1;stroke:none" />
      <text
         xml:space="preserve"
         id="text139"
         style="font-style:normal;font-variant:normal;font-weight:normal;font-stretch:normal;font-size:30px;line-height:1.25;font-family:'Meta Pro';-inkscape-font-specification:'Meta Pro';white-space:pre;shape-inside:url(#rect141);display:inline;fill:#000000;fill-opacity:1;stroke:none" />
      <g
         id="g1671"
         transform="translate(-60.230703,784.79083)" />
      <g
         id="g1684-2"
         transform="translate(-965.82505,531.31685)">
        <g
           id="text145-4"
           style="font-size:39.2554px;line-height:1;white-space:pre;fill:#303030"
           transform="matrix(0.32567673,0,0,0.32567673,78.627713,-853.92251)"
           aria-label="Prof. Quick und Kollegen&#10;Ingenieure und Geologen GmbH">
          <path
             style="font-weight:bold;font-family:'Meta Pro';-inkscape-font-specification:'Meta Pro Bold';word-spacing:-0.921159px"
             d="m -88.495274,-137.18191 q 0,2.70862 -1.256173,4.78916 -1.216917,2.08053 -3.454475,3.14043 -0.471065,0.23553 -0.981385,0.39255 -0.471065,0.15703 -1.099151,0.27479 -0.588831,0.11777 -1.413195,0.19628 -0.824363,0.0393 -1.96277,0.0393 h -3.022667 v 10.04939 h -5.49575 v -27.28251 h 7.183734 q 1.727237,0 2.904899,0.0785 1.216918,0.0785 2.041281,0.27479 0.863619,0.15702 1.45245,0.43181 0.588831,0.23553 1.177662,0.54958 1.923515,1.05989 2.9049,2.9049 1.02064,1.80574 1.02064,4.16107 z m -6.006076,0.11776 q 0,-1.92351 -0.981385,-2.98341 -0.94213,-1.09915 -2.708623,-1.09915 h -3.493732 v 8.32215 h 2.865646 q 0.824363,0 1.373939,-0.0393 0.588831,-0.0785 0.981385,-0.23553 0.431809,-0.15702 0.706597,-0.43181 0.314043,-0.27479 0.588831,-0.7066 0.353299,-0.54957 0.51032,-1.17766 0.157022,-0.66734 0.157022,-1.64873 z m 19.941753,3.2582 q -0.745853,-0.39255 -1.530961,-0.39255 -1.766493,0 -3.218943,1.68798 v 14.21046 h -5.260224 v -13.42535 q 0,-2.04128 -0.235532,-3.53299 -0.196277,-1.4917 -0.51032,-2.35532 l 4.710648,-1.25617 q 0.706597,1.25617 0.824363,2.86564 0.863619,-1.13841 2.041281,-2.00203 1.177662,-0.86361 2.669368,-0.86361 0.588831,0 0.942129,0.0785 0.392554,0.0785 1.020641,0.3533 z m 20.138026,5.37799 q 0,2.59086 -0.628086,4.43586 -0.588831,1.84501 -1.88426,3.33671 -1.138406,1.29543 -2.708622,2.04128 -1.570216,0.74586 -3.925541,0.74586 -2.04128,0 -3.729263,-0.74586 -1.648727,-0.74585 -2.826389,-2.08053 -1.177662,-1.37394 -1.845003,-3.29746 -0.628087,-1.92351 -0.628087,-4.27884 0,-2.35532 0.628087,-4.27883 0.667341,-1.96277 1.845003,-3.33671 1.177662,-1.4132 2.826389,-2.15905 1.687983,-0.74585 3.729263,-0.74585 4.278839,0 6.83044,3.02266 1.216918,1.4132 1.766493,3.14043 0.549576,1.72724 0.549576,4.20033 z m -5.731289,-0.0392 q 0,-4.00405 -1.059895,-5.37799 -0.824364,-1.0599 -2.276814,-1.0599 -0.942129,0 -1.687982,0.54958 -0.706597,0.54957 -1.02064,1.4917 -0.274788,0.78511 -0.43181,1.88426 -0.117766,1.09915 -0.117766,2.59086 0,3.49373 0.667342,5.06395 0.353298,0.82436 1.099151,1.25617 0.785108,0.39255 1.570216,0.39255 1.727238,0 2.47309,-1.60947 0.785108,-1.60947 0.785108,-5.18171 z m 19.706184,-14.40673 q -0.863619,-0.43181 -1.295429,-0.54958 -0.392554,-0.11777 -0.863618,-0.11777 -1.020641,0 -1.609472,0.58883 -0.588831,0.58884 -0.588831,1.68799 v 2.86564 h 5.103202 l -1.334683,3.6115 h -3.729263 v 16.48727 h -5.142458 v -16.48727 h -1.805749 v -3.6115 h 1.923515 q -0.07851,-0.62809 -0.157021,-1.33468 -0.03926,-0.74586 -0.03926,-1.4132 0,-2.98341 1.687982,-4.59288 1.687983,-1.64873 4.789159,-1.64873 1.295429,0 2.39458,0.31405 1.138407,0.27478 2.355324,0.94213 z m 8.204325,21.70823 q 0,0.7066 -0.274788,1.37394 -0.274787,0.62809 -0.745852,1.09915 -0.471065,0.47107 -1.099151,0.74586 -0.628087,0.27478 -1.334684,0.27478 -1.45245,0 -2.47309,-1.02064 -0.981385,-1.02064 -0.981385,-2.47309 0,-1.41319 0.981385,-2.39458 1.02064,-1.02064 2.433835,-1.02064 1.452449,0 2.47309,1.02064 1.02064,0.98139 1.02064,2.39458 z m 36.8032748,7.49778 q -0.1177662,0.0785 -0.7458526,0.27479 -0.5888311,0.19628 -1.6879823,0.19628 -0.785108,0 -1.53096067,-0.23553 -0.74585263,-0.19628 -1.41319445,-0.51032 -0.62808638,-0.27479 -1.17766208,-0.62809 -0.5103202,-0.31404 -0.9028742,-0.54958 -0.981385,-0.66734 -2.4730903,-1.45245 -1.4524499,-0.7851 -3.0619213,-1.29542 -3.0619209,0 -5.1817129,-0.90288 -2.080536,-0.90287 -3.650752,-2.94415 -3.140433,-4.04331 -3.140433,-10.1279 0,-4.43586 1.609472,-7.77257 1.609471,-3.37596 4.553626,-4.98543 1.216918,-0.66734 2.669368,-0.98139 1.45245,-0.3533 2.9834103,-0.3533 2.7086227,0 4.8676698,0.98139 2.1983024,0.94213 3.72926311,2.74788 1.53096069,1.80575 2.31606869,4.35735 0.8243634,2.5516 0.8243634,5.77054 0,4.47512 -1.4524498,7.69406 -1.45244988,3.17969 -3.9255402,4.82841 0.5495756,0.19628 1.25617287,0.62809 0.70659723,0.43181 1.17766205,0.74585 0.74585263,0.43181 1.60947148,0.78511 0.8636188,0.3533 1.7664931,0.3533 0.785108,0 1.4917052,-0.0785 0.7458526,-0.0785 0.9421297,-0.11777 z m -7.7333141,-18.25376 q 0,-2.11979 -0.196277,-3.65075 -0.1570216,-1.53096 -0.5103202,-2.66937 -0.1570217,-0.51032 -0.5103203,-1.09915 -0.3532986,-0.62809 -0.9421296,-1.13841 -0.588831,-0.51032 -1.4131945,-0.86361 -0.8243634,-0.3533 -1.9235146,-0.3533 -1.3739395,0 -2.5123455,0.66734 -1.138407,0.62809 -1.727238,1.72724 -1.373939,2.59085 -1.373939,7.45852 0,7.10523 2.433835,8.83247 1.295428,0.94213 3.2581983,0.94213 2.8656443,0 4.1218171,-2.31607 1.2954283,-2.31607 1.2954283,-7.53704 z m 24.0635843,14.1712 q -1.059896,-0.74585 -1.570216,-1.96277 -0.981385,0.94213 -2.355324,1.4132 -1.334684,0.51032 -2.944155,0.51032 -2.119792,0 -3.768519,-0.90288 -1.6487266,-0.90287 -2.1590469,-2.35532 -0.2355324,-0.66734 -0.3532986,-1.57022 -0.078511,-0.90287 -0.078511,-2.43383 v -12.87577 l 5.1817133,-0.98139 v 12.91503 q 0,1.37394 0.117766,2.11979 0.117766,0.74585 0.314043,1.17766 0.196277,0.43181 0.706597,0.7066 0.549576,0.23553 1.138407,0.23553 0.981385,0 1.96277,-0.58883 0.981385,-0.58883 1.295428,-1.33468 V -137.81 l 5.024692,-1.05989 v 15.34886 q 0,1.02064 0.314043,2.00202 0.314043,0.94213 0.902874,1.64873 z m 8.400633,-0.54957 v -19.74547 l 5.260223,-0.82436 v 20.56983 z m 5.88831,-25.63378 q 0,1.37394 -0.94213,2.31607 -0.942129,0.94213 -2.316068,0.94213 -1.334684,0 -2.276814,-0.94213 -0.942129,-0.94213 -0.942129,-2.31607 0,-1.37394 0.942129,-2.31607 0.981385,-0.94213 2.355324,-0.94213 1.334684,0 2.237558,0.94213 0.94213,0.94213 0.94213,2.31607 z m 19.588471,23.35696 q -0.588831,0.58883 -0.94213,0.90288 -0.353298,0.27479 -0.902874,0.58883 -1.059896,0.62808 -2.276813,0.94213 -1.177662,0.31404 -2.630112,0.31404 -4.161073,0 -6.477142,-2.70862 -2.276813,-2.74788 -2.276813,-7.6548 0,-3.49374 1.177662,-5.77055 1.177662,-2.31607 2.944155,-3.53298 1.020641,-0.66735 2.355324,-1.0599 1.373939,-0.43181 2.630112,-0.43181 1.020641,0 2.041281,0.23553 1.020641,0.23553 1.845004,0.66734 0.549576,0.31405 0.902874,0.58884 0.392554,0.27478 1.059896,0.82436 l -2.551601,3.45447 q -0.785108,-0.74585 -1.609471,-1.1384 -0.824364,-0.43181 -1.570216,-0.43181 -1.766494,0 -2.590857,1.60947 -0.824363,1.57022 -0.824363,5.14246 0,2.00202 0.235532,3.21894 0.274788,1.17766 0.785108,1.845 0.902874,1.13841 2.355324,1.13841 1.727238,0 3.611497,-1.64873 l 0.314043,-0.27478 z m 3.729289,2.27682 v -22.65037 q 0,-1.33468 -0.07851,-2.47309 -0.03926,-1.17766 -0.274788,-2.74788 l 5.299479,-1.29543 q 0.196277,1.13841 0.235533,2.82639 0.07851,1.68798 0.07851,3.69001 v 22.65037 z m 12.129919,0 -6.751929,-11.38407 5.142457,-8.7147 h 6.32012 l -6.398631,8.40066 7.890336,11.69811 z"
             id="path12" />
          <path
             style="font-family:'Meta Pro';-inkscape-font-specification:'Meta Pro';word-spacing:-0.921159px"
             d="m 101.85683,-117.4757 q -0.98138,-0.78511 -1.45245,-1.45245 -0.471063,-0.7066 -0.66734,-1.68798 -2.237558,2.98341 -6.202353,2.98341 -1.88426,0 -3.218943,-0.74585 -1.295428,-0.74586 -1.923515,-2.04129 -0.274788,-0.54957 -0.392554,-1.29542 -0.117766,-0.74586 -0.117766,-1.60947 v -14.36748 l 3.022666,-0.58883 v 14.05343 q 0,1.37394 0.235532,2.11979 0.274788,0.7066 0.94213,1.17766 0.471065,0.31405 1.099151,0.51032 0.628087,0.15703 1.295428,0.15703 1.45245,0 2.826389,-0.94213 1.373939,-0.98139 2.159047,-2.59086 v -13.85716 l 3.022668,-0.51032 v 14.24971 q 0,1.84501 0.27479,2.78714 0.31404,0.90287 1.05989,1.57021 z m 18.96033,-0.82436 v -13.22907 q 0,-0.78511 -0.0393,-1.29543 -0.0392,-0.51032 -0.11776,-0.86362 -0.0785,-0.3533 -0.23554,-0.58883 -0.11776,-0.27479 -0.31404,-0.51032 -0.7066,-0.82437 -2.15905,-0.82437 -0.58883,0 -1.33468,0.23554 -0.7066,0.19627 -1.45245,0.58883 -0.7066,0.3533 -1.41319,0.86362 -0.7066,0.51032 -1.21692,1.05989 v 14.56376 h -2.98341 v -15.07408 q 0,-1.88426 -0.31405,-2.9049 -0.31404,-1.02064 -0.43181,-1.21691 l 2.98342,-0.82437 q 0.11776,0.19628 0.39255,1.09915 0.31404,0.90288 0.31404,1.96277 3.02267,-3.02266 6.1631,-3.02266 1.60947,0 2.9049,0.78511 1.29543,0.7851 1.88426,2.08053 0.47106,1.0599 0.47106,2.27681 v 14.83855 z m 22.96439,0 q -0.0785,-0.15703 -0.23553,-0.74586 -0.15702,-0.58883 -0.19628,-1.25617 -1.05989,1.21692 -2.27681,1.76649 -1.17766,0.51032 -2.9049,0.51032 -3.80777,0 -5.88831,-2.59085 -2.08054,-2.59086 -2.08054,-7.30151 0,-6.28086 4.04331,-9.06799 0.94213,-0.66735 1.80575,-0.94213 0.90287,-0.27479 1.96277,-0.27479 1.64873,0 3.02266,0.66734 1.37394,0.62809 2.27682,1.80575 0,-0.23553 -0.0393,-1.13841 0,-0.94213 0,-1.88426 v -8.20438 l 3.06192,0.51032 v 21.82601 q 0,2.5516 0.11777,4.00405 0.15702,1.45245 0.47107,2.31607 z m -0.54957,-15.34887 q -0.74586,-1.02064 -1.88426,-1.53096 -1.09915,-0.51032 -2.86565,-0.51032 -2.39458,0 -3.65075,2.04128 -0.7066,1.13841 -0.98138,2.35533 -0.27479,1.21692 -0.27479,3.29745 0,1.72724 0.15702,2.98341 0.15702,1.25618 0.62809,2.11979 0.66734,1.21692 1.60947,1.7665 0.94213,0.51032 2.31607,0.51032 1.21691,0 2.00202,-0.27479 0.82437,-0.31404 1.7665,-0.98139 0.47106,-0.31404 0.7851,-0.74585 0.31405,-0.47106 0.39256,-0.66734 z"
             id="path14" />
          <path
             style="font-weight:bold;font-family:'Meta Pro';-inkscape-font-specification:'Meta Pro Bold';word-spacing:-0.921159px"
             d="m 174.61794,-118.30006 -8.28289,-14.24971 v 14.24971 h -5.61352 v -27.28251 h 5.61352 v 12.44396 l 7.77257,-12.44396 h 6.75193 l -8.7147,12.64024 9.69609,14.64227 z m 25.59451,-10.1279 q 0,2.59086 -0.62809,4.43586 -0.58883,1.84501 -1.88426,3.33671 -1.13841,1.29543 -2.70862,2.04128 -1.57022,0.74586 -3.92554,0.74586 -2.04128,0 -3.72926,-0.74586 -1.64873,-0.74585 -2.82639,-2.08053 -1.17767,-1.37394 -1.84501,-3.29746 -0.62808,-1.92351 -0.62808,-4.27884 0,-2.35532 0.62808,-4.27883 0.66734,-1.96277 1.84501,-3.33671 1.17766,-1.4132 2.82639,-2.15905 1.68798,-0.74585 3.72926,-0.74585 4.27884,0 6.83044,3.02266 1.21692,1.4132 1.76649,3.14043 0.54958,1.72724 0.54958,4.20033 z m -5.73129,-0.0392 q 0,-4.00405 -1.0599,-5.37799 -0.82436,-1.0599 -2.27681,-1.0599 -0.94213,0 -1.68798,0.54958 -0.7066,0.54957 -1.02064,1.4917 -0.27479,0.78511 -0.43181,1.88426 -0.11777,1.09915 -0.11777,2.59086 0,3.49373 0.66734,5.06395 0.3533,0.82436 1.09915,1.25617 0.78511,0.39255 1.57022,0.39255 1.72724,0 2.47309,-1.60947 0.78511,-1.60947 0.78511,-5.18171 z m 18.33228,10.08864 q -1.41319,0.54957 -3.14043,0.54957 -1.68798,0 -2.94416,-0.74585 -1.25617,-0.74585 -1.72723,-2.00203 -0.15703,-0.39255 -0.23554,-0.74585 -0.0785,-0.3533 -0.15702,-0.82436 -0.0393,-0.47107 -0.0785,-1.17766 0,-0.7066 0,-1.7665 v -14.99556 q 0,-2.00203 -0.0785,-3.33671 -0.0393,-1.33468 -0.19628,-2.70862 l 5.37799,-1.21692 q 0.15702,0.82436 0.19628,1.96277 0.0785,1.13841 0.0785,3.2582 v 15.6629 q 0,1.29543 0,2.08054 0.0393,0.78511 0.0393,1.25617 0.0393,0.47107 0.11776,0.7066 0.0785,0.23553 0.19628,0.43181 0.31404,0.54957 1.05989,0.54957 h 0.27479 q 0.11777,0 0.31405,-0.0785 z m 11.03076,0 q -1.41319,0.54957 -3.14043,0.54957 -1.68798,0 -2.94416,-0.74585 -1.25617,-0.74585 -1.72723,-2.00203 -0.15702,-0.39255 -0.23554,-0.74585 -0.0785,-0.3533 -0.15702,-0.82436 -0.0392,-0.47107 -0.0785,-1.17766 0,-0.7066 0,-1.7665 v -14.99556 q 0,-2.00203 -0.0785,-3.33671 -0.0393,-1.33468 -0.19628,-2.70862 l 5.37799,-1.21692 q 0.15703,0.82436 0.19628,1.96277 0.0785,1.13841 0.0785,3.2582 v 15.6629 q 0,1.29543 0,2.08054 0.0393,0.78511 0.0393,1.25617 0.0393,0.47107 0.11776,0.7066 0.0785,0.23553 0.19628,0.43181 0.31404,0.54957 1.0599,0.54957 h 0.27478 q 0.11777,0 0.31405,-0.0785 z m 7.65482,-8.32215 v 0.15702 q 0,2.35533 1.09915,3.6115 1.09916,1.25617 3.14044,1.25617 2.66936,0 5.1032,-2.00202 l 2.04128,3.14043 q -3.41522,2.78713 -7.57629,2.78713 -2.15905,0 -3.92554,-0.74585 -1.7665,-0.74585 -3.02267,-2.08054 -1.21692,-1.37394 -1.88426,-3.29745 -0.66734,-1.92352 -0.66734,-4.27884 0,-2.70862 0.58883,-4.59288 0.58883,-1.88426 1.92352,-3.37597 1.25617,-1.37393 2.78713,-2.04128 1.53096,-0.66734 3.53299,-0.66734 1.76649,0 3.29745,0.54958 1.53096,0.54957 2.51234,1.57021 1.37394,1.4132 2.00203,3.53299 0.66734,2.08054 0.66734,5.26022 v 1.21692 z m 6.1631,-4.08256 q 0,-1.13841 -0.15702,-1.80575 -0.11777,-0.66734 -0.47107,-1.21692 -0.7851,-1.17766 -2.31606,-1.17766 -1.49171,0 -2.31607,1.13841 -0.82437,1.09915 -0.82437,3.21894 v 0.0785 h 6.08459 z m 29.48085,-5.41725 q -0.86362,0.78511 -1.72724,1.13841 -0.86362,0.3533 -1.96277,0.3533 -0.39255,0 -0.78511,-0.0393 -0.35329,-0.0393 -0.58883,-0.0785 0.58883,0.7066 0.86362,1.49171 0.31404,0.78511 0.31404,1.80575 0,1.29542 -0.54957,2.39458 -0.54958,1.09915 -1.57022,1.88425 -0.98138,0.78511 -2.35532,1.25618 -1.33468,0.43181 -2.94416,0.43181 h -0.35329 q -0.11777,0 -0.43181,-0.0393 -1.02064,0.47107 -1.57022,0.86362 -0.51032,0.3533 -0.51032,0.78511 0,0.47106 0.86362,0.47106 l 2.82639,0.0393 q 2.27681,0.0392 3.65075,0.43181 1.37394,0.39255 2.43383,1.37394 1.72724,1.60947 1.72724,4.27884 0,2.43383 -1.60947,4.16107 -1.33468,1.41319 -3.45447,2.00202 -2.1198,0.58884 -4.47512,0.58884 -2.15905,0 -4.20033,-0.47107 -2.04128,-0.43181 -3.41522,-1.68798 -1.64873,-1.53096 -1.64873,-3.57224 0,-0.82437 0.15703,-1.29543 0.15702,-0.43181 0.31404,-0.74585 h 4.86767 q -0.15702,0.35329 -0.19628,0.58883 -0.0393,0.27478 -0.0393,0.70659 0,1.21692 0.94213,1.84501 0.98138,0.62808 2.82639,0.62808 1.02064,0 1.845,-0.15702 0.82436,-0.11776 1.45245,-0.51032 0.58883,-0.3533 0.94213,-0.90287 0.3533,-0.51032 0.3533,-1.13841 0,-1.37394 -1.0599,-1.845 -1.05989,-0.51032 -2.63011,-0.54958 l -2.23756,-0.0392 q -3.45447,-0.0393 -4.82841,-0.62809 -0.7066,-0.27479 -1.13841,-0.94213 -0.39255,-0.66734 -0.39255,-1.68798 0,-0.47107 0.11776,-0.94213 0.11777,-0.47107 0.47107,-0.90288 0.39255,-0.4318 1.09915,-0.82436 0.74585,-0.39255 2.00202,-0.7066 -4.31809,-1.09915 -4.31809,-5.57426 0,-1.53096 0.58883,-2.78714 0.62809,-1.25617 1.72724,-2.11979 1.09915,-0.90287 2.66937,-1.37394 1.57021,-0.51032 3.49373,-0.51032 0.86362,0 1.68798,0.11777 0.82436,0.11776 1.92351,0.39255 0.82437,0.19628 1.37394,0.31405 0.58883,0.11776 1.09915,0.11776 1.09916,0 2.15905,-0.43181 1.09915,-0.47106 2.00203,-1.29543 z m -9.30353,4.27884 q 0,-1.41319 -0.86362,-2.1983 -0.82436,-0.78511 -2.31607,-0.78511 -1.4917,0 -2.31607,0.78511 -0.82436,0.78511 -0.82436,2.1983 0,1.53096 0.86362,2.1983 0.86362,0.66735 2.23756,0.66735 3.21894,0 3.21894,-2.86565 z m 15.6236,5.22097 v 0.15702 q 0,2.35533 1.09915,3.6115 1.09916,1.25617 3.14044,1.25617 2.66936,0 5.1032,-2.00202 l 2.04128,3.14043 q -3.41522,2.78713 -7.57629,2.78713 -2.15905,0 -3.92554,-0.74585 -1.7665,-0.74585 -3.02267,-2.08054 -1.21692,-1.37394 -1.88426,-3.29745 -0.66734,-1.92352 -0.66734,-4.27884 0,-2.70862 0.58883,-4.59288 0.58883,-1.88426 1.92352,-3.37597 1.25617,-1.37393 2.78713,-2.04128 1.53096,-0.66734 3.53299,-0.66734 1.76649,0 3.29745,0.54958 1.53096,0.54957 2.51234,1.57021 1.37394,1.4132 2.00203,3.53299 0.66734,2.08054 0.66734,5.26022 v 1.21692 z m 6.1631,-4.08256 q 0,-1.13841 -0.15702,-1.80575 -0.11777,-0.66734 -0.47107,-1.21692 -0.7851,-1.17766 -2.31606,-1.17766 -1.49171,0 -2.31607,1.13841 -0.82437,1.09915 -0.82437,3.21894 v 0.0785 h 6.08459 z m 20.25583,12.48322 v -13.07205 q 0,-1.72724 -0.39255,-2.31607 -0.3533,-0.62809 -1.37394,-0.62809 -0.78511,0 -1.7665,0.51032 -0.98138,0.47107 -1.88426,1.29543 v 14.21046 h -5.26022 v -14.56376 q 0,-1.29543 -0.19628,-2.47309 -0.15702,-1.21692 -0.51032,-2.23756 l 4.6714,-1.33468 q 0.74585,1.29543 0.74585,2.51235 0.58883,-0.43181 1.09915,-0.78511 0.54958,-0.3533 1.21692,-0.7066 0.78511,-0.43181 1.72724,-0.62809 0.98138,-0.23553 1.88425,-0.23553 1.68799,0 3.02267,0.82437 1.33468,0.7851 1.80575,2.08053 0.39255,1.0599 0.39255,2.86565 v 14.68152 z"
             id="path15" />
          <path
             style="font-weight:bold;font-family:'Meta Pro';-inkscape-font-specification:'Meta Pro Bold'"
             d="m -107.18084,-78.089568 v -27.282502 h 5.73128 v 27.282502 z m 22.297045,0 v -13.072049 c 0,-1.151492 -0.130851,-1.923515 -0.392554,-2.316069 -0.235533,-0.418724 -0.693512,-0.628086 -1.373939,-0.628086 -0.523405,0 -1.112237,0.170107 -1.766494,0.51032 -0.654257,0.314043 -1.282343,0.745853 -1.884259,1.295428 v 14.210456 h -5.260224 v -14.563754 c 0,-0.863619 -0.06543,-1.687983 -0.196277,-2.473091 -0.104681,-0.811278 -0.274787,-1.557131 -0.51032,-2.237558 l 4.671393,-1.334683 c 0.497235,0.863619 0.745853,1.701067 0.745853,2.512345 0.392554,-0.287873 0.758938,-0.549575 1.099151,-0.785108 0.366383,-0.235532 0.772022,-0.471064 1.216917,-0.706597 0.523405,-0.287873 1.099151,-0.497235 1.727238,-0.628086 0.654257,-0.157022 1.282343,-0.235533 1.884259,-0.235533 1.125321,0 2.132877,0.274788 3.022666,0.824364 0.889789,0.523405 1.491706,1.216917 1.805749,2.080536 0.261703,0.706597 0.392554,1.661812 0.392554,2.865644 v 14.681521 z m 30.972546,-17.900464 c -0.575746,0.523405 -1.151492,0.902874 -1.727238,1.138407 -0.575745,0.235533 -1.230002,0.353299 -1.96277,0.353299 -0.261703,0 -0.523405,-0.01309 -0.785108,-0.03926 -0.235532,-0.02617 -0.431809,-0.05234 -0.588831,-0.07851 0.392554,0.471065 0.680427,0.968301 0.863619,1.491706 0.209362,0.523405 0.314043,1.125321 0.314043,1.805748 0,0.863619 -0.183192,1.661812 -0.549575,2.39458 -0.366384,0.732767 -0.889789,1.360854 -1.570216,1.884259 -0.654257,0.523405 -1.439365,0.94213 -2.355324,1.256173 -0.889789,0.287873 -1.871175,0.431809 -2.944156,0.431809 h -0.353298 c -0.07851,0 -0.222447,-0.01309 -0.43181,-0.03926 -0.680427,0.314043 -1.203832,0.601916 -1.570216,0.863619 -0.340213,0.235532 -0.51032,0.497235 -0.51032,0.785108 0,0.314043 0.287873,0.471065 0.863619,0.471065 l 2.826389,0.03925 c 1.517875,0.02617 2.734793,0.17011 3.650752,0.431809 0.915959,0.261703 1.727238,0.719682 2.433835,1.373939 1.151492,1.072981 1.727238,2.499261 1.727238,4.278839 0,1.622557 -0.536491,3.009581 -1.609472,4.161073 -0.889789,0.942129 -2.04128,1.609471 -3.454475,2.002025 -1.413195,0.392554 -2.9049,0.588831 -4.475116,0.588831 -1.439365,0 -2.839474,-0.157022 -4.200328,-0.471065 -1.360854,-0.287873 -2.499261,-0.850533 -3.41522,-1.687982 -1.099151,-1.020641 -1.648727,-2.211388 -1.648727,-3.572241 0,-0.549576 0.05234,-0.981386 0.157022,-1.295429 0.104681,-0.287873 0.209362,-0.53649 0.314043,-0.745852 h 4.86767 c -0.104681,0.235532 -0.170107,0.431809 -0.196277,0.588831 -0.02617,0.183192 -0.03925,0.418724 -0.03925,0.706597 0,0.811278 0.314043,1.426279 0.942129,1.845004 0.654257,0.418724 1.596386,0.628086 2.826389,0.628086 0.680427,0 1.295429,-0.05234 1.845004,-0.157021 0.549576,-0.07851 1.033726,-0.248618 1.45245,-0.510321 0.392554,-0.235532 0.706597,-0.53649 0.94213,-0.902874 0.235532,-0.340213 0.353298,-0.719682 0.353298,-1.138406 0,-0.915959 -0.353299,-1.530961 -1.059896,-1.845004 -0.706597,-0.340214 -1.583301,-0.523406 -2.630112,-0.549576 l -2.237557,-0.03925 c -2.302984,-0.02617 -3.912456,-0.235536 -4.828415,-0.628087 -0.471065,-0.183192 -0.850533,-0.497235 -1.138406,-0.942129 -0.261703,-0.444895 -0.392555,-1.007556 -0.392555,-1.687983 0,-0.314043 0.03926,-0.628086 0.117767,-0.942129 0.07851,-0.314043 0.235532,-0.615002 0.471065,-0.902875 0.261703,-0.287873 0.628086,-0.56266 1.099151,-0.824363 0.497235,-0.261703 1.164576,-0.497235 2.002025,-0.706597 -2.878729,-0.732767 -4.318094,-2.590856 -4.318094,-5.574267 0,-1.020641 0.196277,-1.949685 0.588831,-2.787134 0.418725,-0.837449 0.994471,-1.544046 1.727238,-2.119791 0.732767,-0.601917 1.622556,-1.059896 2.669367,-1.373939 1.046811,-0.340214 2.211388,-0.510321 3.493731,-0.510321 0.575746,0 1.138407,0.03925 1.687982,0.117766 0.549576,0.07851 1.190748,0.209363 1.923515,0.392555 0.549575,0.130851 1.007555,0.235532 1.373939,0.314043 0.392554,0.07851 0.758938,0.117766 1.099151,0.117766 0.732767,0 1.45245,-0.143936 2.159047,-0.431809 0.732767,-0.314043 1.400109,-0.745853 2.002026,-1.295429 z m -9.30353,4.278839 c 0,-0.942129 -0.287873,-1.674897 -0.863619,-2.198302 -0.549575,-0.523405 -1.321598,-0.785108 -2.316069,-0.785108 -0.99447,0 -1.766493,0.261703 -2.316068,0.785108 -0.549576,0.523405 -0.824364,1.256173 -0.824364,2.198302 0,1.020641 0.287873,1.753408 0.863619,2.198303 0.575746,0.444894 1.321599,0.667341 2.237558,0.667341 2.145962,0 3.218943,-0.955215 3.218943,-2.865644 z m 15.62363,5.220969 v 0.157021 c 0,1.570216 0.366384,2.774048 1.099152,3.611497 0.732767,0.837449 1.779578,1.256173 3.140432,1.256173 1.779578,0 3.480645,-0.667342 5.103202,-2.002025 l 2.041281,3.140432 c -2.276813,1.858089 -4.802244,2.787133 -7.576293,2.787133 -1.439365,0 -2.747878,-0.248617 -3.92554,-0.745852 -1.177662,-0.497235 -2.185217,-1.190748 -3.022666,-2.080537 -0.811278,-0.915959 -1.439364,-2.01511 -1.884259,-3.297453 -0.444895,-1.282343 -0.667342,-2.708623 -0.667342,-4.278839 0,-1.805749 0.196277,-3.336709 0.588831,-4.592882 0.392554,-1.256173 1.033726,-2.381495 1.923515,-3.375965 0.837449,-0.915959 1.766493,-1.596386 2.787133,-2.041281 1.020641,-0.444895 2.198303,-0.667342 3.532986,-0.667342 1.177663,0 2.276814,0.183192 3.297454,0.549576 1.020641,0.366384 1.858089,0.889789 2.512346,1.570216 0.915959,0.94213 1.583301,2.119792 2.002025,3.532986 0.444895,1.387025 0.667342,3.140433 0.667342,5.260224 v 1.216918 z m 6.163098,-4.082562 c 0,-0.758938 -0.05234,-1.360854 -0.157021,-1.805749 -0.07851,-0.444894 -0.235532,-0.850533 -0.471065,-1.216917 -0.523405,-0.785108 -1.295428,-1.177662 -2.316069,-1.177662 -0.99447,0 -1.766493,0.379469 -2.316068,1.138406 -0.549576,0.732768 -0.824364,1.805749 -0.824364,3.218943 v 0.07851 h 6.084587 z m 20.255814,12.483218 v -13.072049 c 0,-1.151492 -0.130851,-1.923515 -0.392554,-2.316069 -0.235533,-0.418724 -0.693512,-0.628086 -1.373939,-0.628086 -0.523405,0 -1.112236,0.170107 -1.766493,0.51032 -0.654257,0.314043 -1.282343,0.745853 -1.884259,1.295428 v 14.210456 h -5.260224 v -14.563754 c 0,-0.863619 -0.06543,-1.687983 -0.196277,-2.473091 -0.104681,-0.811278 -0.274788,-1.557131 -0.51032,-2.237558 l 4.671392,-1.334683 c 0.497235,0.863619 0.745853,1.701067 0.745853,2.512345 0.392554,-0.287873 0.758938,-0.549575 1.099151,-0.785108 0.366384,-0.235532 0.772023,-0.471064 1.216918,-0.706597 0.523405,-0.287873 1.099151,-0.497235 1.727237,-0.628086 0.654257,-0.157022 1.282343,-0.235533 1.88426,-0.235533 1.125321,0 2.132876,0.274788 3.022665,0.824364 0.889789,0.523405 1.491706,1.216917 1.805749,2.080536 0.261703,0.706597 0.392554,1.661812 0.392554,2.865644 v 14.681521 z m 11.070059,0 v -19.745467 l 5.2602236,-0.824364 v 20.569831 z m 5.88831,-25.633782 c 0,0.91596 -0.3140432,1.68798 -0.9421296,2.31607 -0.6280864,0.62809 -1.4001093,0.94213 -2.3160687,0.94213 -0.8897891,0 -1.6487268,-0.31404 -2.2768133,-0.94213 -0.6280864,-0.62809 -0.9421294,-1.40011 -0.9421294,-2.31607 0,-0.91595 0.314043,-1.68797 0.9421294,-2.31606 0.6542567,-0.62809 1.4393648,-0.94213 2.3553241,-0.94213 0.8897891,0 1.6356418,0.31404 2.2375579,0.94213 0.6280864,0.62809 0.9421296,1.40011 0.9421296,2.31606 z m 9.7746129,17.233126 v 0.157021 c 0,1.570216 0.3663838,2.774048 1.0991513,3.611497 0.7327675,0.837449 1.7795782,1.256173 3.1404321,1.256173 1.7795787,0 3.4806457,-0.667342 5.1032027,-2.002025 l 2.04128,3.140432 c -2.276813,1.858089 -4.802244,2.787133 -7.5762921,2.787133 -1.4393647,0 -2.7478781,-0.248617 -3.9255402,-0.745852 -1.177662,-0.497235 -2.1852173,-1.190748 -3.0226659,-2.080537 -0.8112783,-0.915959 -1.43936469,-2.01511 -1.88425927,-3.297453 -0.44489455,-1.282343 -0.66734183,-2.708623 -0.66734183,-4.278839 0,-1.805749 0.19627701,-3.336709 0.58883102,-4.592882 0.39255399,-1.256173 1.03372558,-2.381495 1.92351468,-3.375965 0.8374486,-0.915959 1.7664931,-1.596386 2.7871335,-2.041281 1.0206405,-0.444895 2.1983025,-0.667342 3.5329862,-0.667342 1.1776619,0 2.2768129,0.183192 3.2974539,0.549576 1.02064,0.366384 1.858089,0.889789 2.512346,1.570216 0.915959,0.94213 1.583301,2.119792 2.002025,3.532986 0.444895,1.387025 0.667342,3.140433 0.667342,5.260224 v 1.216918 z m 6.1630981,-4.082562 c 0,-0.758938 -0.05234,-1.360854 -0.157022,-1.805749 -0.07851,-0.444894 -0.235532,-0.850533 -0.471064,-1.216917 -0.523405,-0.785108 -1.2954284,-1.177662 -2.3160691,-1.177662 -0.9944702,0 -1.7664931,0.379469 -2.3160687,1.138406 -0.5495757,0.732768 -0.8243635,1.805749 -0.8243635,3.218943 v 0.07851 h 6.0845873 z m 22.611138,13.032793 c -0.706597,-0.497235 -1.230003,-1.151491 -1.570216,-1.96277 -0.654257,0.628087 -1.439365,1.099152 -2.355324,1.413195 -0.889789,0.340213 -1.871175,0.51032 -2.944156,0.51032 -1.413194,0 -2.669367,-0.300958 -3.768518,-0.902874 -1.099151,-0.601917 -1.818834,-1.387025 -2.159047,-2.355325 -0.157022,-0.444894 -0.274788,-0.968299 -0.353299,-1.570216 -0.05234,-0.601916 -0.07851,-1.413194 -0.07851,-2.433835 v -12.875771 l 5.181713,-0.981385 v 12.915027 c 0,0.915959 0.03926,1.622557 0.117767,2.119792 0.07851,0.497235 0.183192,0.889789 0.314043,1.177662 0.130851,0.287873 0.366384,0.523405 0.706597,0.706597 0.366384,0.157021 0.745853,0.235532 1.138407,0.235532 0.654257,0 1.308513,-0.196277 1.96277,-0.588831 0.654257,-0.392554 1.086066,-0.837448 1.295428,-1.334683 v -14.131945 l 5.024691,-1.059896 v 15.348862 c 0,0.680427 0.104681,1.347769 0.314044,2.002026 0.209362,0.628086 0.51032,1.177661 0.902874,1.648726 z m 18.410775,-16.055459 c -0.497235,-0.261703 -1.007556,-0.392554 -1.530961,-0.392554 -1.177662,0 -2.250643,0.562661 -3.218943,1.687982 v 14.210456 h -5.260223 v -13.425348 c 0,-1.360854 -0.07851,-2.538516 -0.235533,-3.532986 -0.130851,-0.99447 -0.300958,-1.779578 -0.51032,-2.355324 l 4.710648,-1.256173 c 0.471065,0.837449 0.745853,1.792663 0.824364,2.865644 0.575745,-0.758937 1.256172,-1.426279 2.04128,-2.002025 0.785108,-0.575746 1.674897,-0.863619 2.669368,-0.863619 0.392554,0 0.706597,0.02617 0.942129,0.07851 0.261703,0.05234 0.601916,0.170106 1.020641,0.353299 z m 7.851076,7.105228 v 0.157021 c 0,1.570216 0.366384,2.774048 1.099151,3.611497 0.732767,0.837449 1.779578,1.256173 3.140432,1.256173 1.779579,0 3.480646,-0.667342 5.103203,-2.002025 l 2.04128,3.140432 c -2.276813,1.858089 -4.802244,2.787133 -7.576292,2.787133 -1.439365,0 -2.747878,-0.248617 -3.92554,-0.745852 -1.177662,-0.497235 -2.185217,-1.190748 -3.022666,-2.080537 -0.811279,-0.915959 -1.439365,-2.01511 -1.884259,-3.297453 -0.444895,-1.282343 -0.667342,-2.708623 -0.667342,-4.278839 0,-1.805749 0.196277,-3.336709 0.588831,-4.592882 0.392554,-1.256173 1.033725,-2.381495 1.923514,-3.375965 0.837449,-0.915959 1.766493,-1.596386 2.787134,-2.041281 1.020641,-0.444895 2.198303,-0.667342 3.532986,-0.667342 1.177662,0 2.276813,0.183192 3.297454,0.549576 1.02064,0.366384 1.858089,0.889789 2.512346,1.570216 0.915959,0.94213 1.583301,2.119792 2.002025,3.532986 0.444895,1.387025 0.667342,3.140433 0.667342,5.260224 v 1.216918 z m 6.163098,-4.082562 c 0,-0.758938 -0.05234,-1.360854 -0.157022,-1.805749 -0.07851,-0.444894 -0.235532,-0.850533 -0.471064,-1.216917 -0.523405,-0.785108 -1.295428,-1.177662 -2.316069,-1.177662 -0.99447,0 -1.766493,0.379469 -2.316069,1.138406 -0.549575,0.732768 -0.824363,1.805749 -0.824363,3.218943 v 0.07851 h 6.084587 z"
             id="path17" />
          <path
             style="font-family:'Meta Pro';-inkscape-font-specification:'Meta Pro'"
             d="m 99.930761,-77.265205 q -0.981385,-0.785108 -1.45245,-1.45245 -0.471065,-0.706597 -0.667342,-1.687982 -2.237558,2.98341 -6.202353,2.98341 -1.88426,0 -3.218943,-0.745852 -1.295429,-0.745853 -1.923515,-2.041281 -0.274788,-0.549576 -0.392554,-1.295428 -0.117766,-0.745853 -0.117766,-1.609472 v -14.367477 l 3.022666,-0.588831 v 14.053434 q 0,1.373939 0.235532,2.119792 0.274788,0.706597 0.94213,1.177662 0.471064,0.314043 1.099151,0.51032 0.628086,0.157021 1.295428,0.157021 1.45245,0 2.826389,-0.942129 1.373939,-0.981385 2.159047,-2.590857 v -13.857156 l 3.022669,-0.510321 v 14.249711 q 0,1.845004 0.27478,2.787134 0.31405,0.902874 1.0599,1.570216 z m 18.960309,-0.824363 v -13.229071 q 0,-0.785108 -0.0392,-1.295428 -0.0393,-0.51032 -0.11777,-0.863619 -0.0785,-0.353299 -0.23553,-0.588831 -0.11777,-0.274788 -0.31405,-0.51032 -0.70659,-0.824364 -2.15904,-0.824364 -0.58883,0 -1.33469,0.235533 -0.70659,0.196277 -1.45245,0.588831 -0.70659,0.353298 -1.41319,0.863619 -0.7066,0.51032 -1.21692,1.059896 v 14.563754 h -2.98341 v -15.074075 q 0,-1.884259 -0.31404,-2.904899 -0.31405,-1.020641 -0.43181,-1.216918 l 2.98341,-0.824363 q 0.11777,0.196277 0.39255,1.099151 0.31405,0.902874 0.31405,1.96277 3.02266,-3.022666 6.16309,-3.022666 1.60948,0 2.9049,0.785108 1.29543,0.785108 1.88426,2.080536 0.47107,1.059896 0.47107,2.276814 v 14.838542 z m 22.96441,0 q -0.0785,-0.157022 -0.23553,-0.745853 -0.15702,-0.588831 -0.19628,-1.256173 -1.05989,1.216917 -2.27681,1.766493 -1.17766,0.51032 -2.9049,0.51032 -3.80777,0 -5.88831,-2.590856 -2.08054,-2.590857 -2.08054,-7.301505 0,-6.280864 4.04331,-9.067998 0.94213,-0.667341 1.80575,-0.942129 0.90287,-0.274788 1.96277,-0.274788 1.64872,0 3.02266,0.667342 1.37394,0.628086 2.27682,1.805748 0,-0.235532 -0.0393,-1.138406 0,-0.94213 0,-1.88426 v -8.204377 l 3.06192,0.51032 v 21.826002 q 0,2.551601 0.11777,4.004051 0.15702,1.45245 0.47106,2.316069 z m -0.54957,-15.348863 q -0.74586,-1.02064 -1.88426,-1.53096 -1.09915,-0.51032 -2.86565,-0.51032 -2.39458,0 -3.65075,2.04128 -0.7066,1.138407 -0.98138,2.355325 -0.27479,1.216917 -0.27479,3.297453 0,1.727238 0.15702,2.983411 0.15702,1.256173 0.62809,2.119792 0.66734,1.216917 1.60947,1.766493 0.94213,0.51032 2.31607,0.51032 1.21691,0 2.00202,-0.274788 0.82436,-0.314043 1.76649,-0.981385 0.47107,-0.314043 0.78511,-0.745853 0.31405,-0.471064 0.39256,-0.667341 z"
             id="path18" />
          <path
             style="font-weight:bold;font-family:'Meta Pro';-inkscape-font-specification:'Meta Pro Bold'"
             d="m 179.81538,-80.20936 q -2.11979,1.256173 -4.3966,1.845004 -2.23756,0.588831 -4.6714,0.588831 -3.06192,0 -5.37799,-1.020641 -2.27681,-1.02064 -3.92554,-3.140432 -1.4917,-1.923515 -2.1983,-4.200328 -0.7066,-2.276813 -0.7066,-5.338734 0,-8.59693 5.69204,-12.40471 1.4917,-1.02064 3.06192,-1.45245 1.60947,-0.47106 3.57224,-0.47106 2.47309,0 4.67139,0.78511 2.19831,0.7851 4.00405,2.35532 l -2.9049,3.41522 q -2.59085,-2.11979 -5.69203,-2.11979 -2.47309,0 -3.92554,1.373937 -1.37394,1.334684 -1.845,3.532987 -0.47107,2.198302 -0.47107,5.260223 0,5.731289 2.04128,7.77257 1.60947,1.530961 4.27884,1.530961 1.80575,0 3.10118,-0.667342 v -6.202354 h -4.16107 l -0.7066,-4.475115 h 10.5597 z m 10.01015,-6.280864 v 0.157021 q 0,2.355324 1.09915,3.611497 1.09915,1.256173 3.14043,1.256173 2.66937,0 5.10321,-2.002025 l 2.04128,3.140432 q -3.41522,2.787133 -7.5763,2.787133 -2.15904,0 -3.92554,-0.745852 -1.76649,-0.745853 -3.02266,-2.080537 -1.21692,-1.373939 -1.88426,-3.297453 -0.66734,-1.923515 -0.66734,-4.278839 0,-2.708623 0.58883,-4.592882 0.58883,-1.88426 1.92351,-3.375965 1.25618,-1.373939 2.78714,-2.041281 1.53096,-0.667342 3.53298,-0.667342 1.7665,0 3.29746,0.549576 1.53096,0.549576 2.51234,1.570216 1.37394,1.413195 2.00203,3.532986 0.66734,2.080537 0.66734,5.260224 v 1.216918 z m 6.1631,-4.082562 q 0,-1.138407 -0.15702,-1.805749 -0.11777,-0.667341 -0.47107,-1.216917 -0.78511,-1.177662 -2.31607,-1.177662 -1.4917,0 -2.31607,1.138406 -0.82436,1.099152 -0.82436,3.218943 v 0.07851 h 6.08459 z m 26.37967,2.355324 q 0,2.590856 -0.62809,4.43586 -0.58883,1.845004 -1.88426,3.336709 -1.1384,1.295429 -2.70862,2.041281 -1.57021,0.745853 -3.92554,0.745853 -2.04128,0 -3.72926,-0.745853 -1.64873,-0.745852 -2.82639,-2.080536 -1.17766,-1.373939 -1.845,-3.297454 -0.62809,-1.923514 -0.62809,-4.278838 0,-2.355325 0.62809,-4.278839 0.66734,-1.96277 1.845,-3.336709 1.17766,-1.413195 2.82639,-2.159047 1.68798,-0.745853 3.72926,-0.745853 4.27884,0 6.83044,3.022666 1.21692,1.413194 1.76649,3.140432 0.54958,1.727238 0.54958,4.200328 z m -5.73129,-0.03925 q 0,-4.004051 -1.05989,-5.377991 -0.82437,-1.059895 -2.27682,-1.059895 -0.94213,0 -1.68798,0.549575 -0.7066,0.549576 -1.02064,1.491706 -0.27479,0.785108 -0.43181,1.884259 -0.11777,1.099151 -0.11777,2.590856 0,3.493731 0.66735,5.063947 0.35329,0.824364 1.09915,1.256173 0.78511,0.392554 1.57021,0.392554 1.72724,0 2.47309,-1.609471 0.78511,-1.609472 0.78511,-5.181713 z m 18.33228,10.088638 q -1.41319,0.549575 -3.14043,0.549575 -1.68798,0 -2.94415,-0.745852 -1.25618,-0.745853 -1.72724,-2.002026 -0.15702,-0.392554 -0.23553,-0.745852 -0.0785,-0.353299 -0.15703,-0.824364 -0.0392,-0.471065 -0.0785,-1.177662 0,-0.706597 0,-1.766493 v -14.995563 q 0,-2.002024 -0.0785,-3.336714 -0.0393,-1.33468 -0.19627,-2.70862 l 5.37799,-1.21692 q 0.15702,0.82437 0.19627,1.96277 0.0785,1.13841 0.0785,3.2582 v 15.662908 q 0,1.295428 0,2.080536 0.0393,0.785108 0.0393,1.256173 0.0393,0.471065 0.11777,0.706597 0.0785,0.235533 0.19627,0.43181 0.31405,0.549575 1.0599,0.549575 h 0.27479 q 0.11776,0 0.31404,-0.07851 z m 19.94177,-10.049383 q 0,2.590856 -0.62809,4.43586 -0.58883,1.845004 -1.88426,3.336709 -1.13841,1.295429 -2.70862,2.041281 -1.57022,0.745853 -3.92554,0.745853 -2.04128,0 -3.72927,-0.745853 -1.64872,-0.745852 -2.82639,-2.080536 -1.17766,-1.373939 -1.845,-3.297454 -0.62809,-1.923514 -0.62809,-4.278838 0,-2.355325 0.62809,-4.278839 0.66734,-1.96277 1.845,-3.336709 1.17767,-1.413195 2.82639,-2.159047 1.68799,-0.745853 3.72927,-0.745853 4.27884,0 6.83044,3.022666 1.21691,1.413194 1.76649,3.140432 0.54958,1.727238 0.54958,4.200328 z m -5.73129,-0.03925 q 0,-4.004051 -1.0599,-5.377991 -0.82436,-1.059895 -2.27681,-1.059895 -0.94213,0 -1.68798,0.549575 -0.7066,0.549576 -1.02065,1.491706 -0.27478,0.785108 -0.4318,1.884259 -0.11777,1.099151 -0.11777,2.590856 0,3.493731 0.66734,5.063947 0.3533,0.824364 1.09915,1.256173 0.78511,0.392554 1.57022,0.392554 1.72724,0 2.47309,-1.609471 0.78511,-1.609472 0.78511,-5.181713 z m 30.14811,-7.733315 q -0.86362,0.785108 -1.72724,1.138407 -0.86362,0.353299 -1.96277,0.353299 -0.39256,0 -0.78511,-0.03926 -0.3533,-0.03925 -0.58883,-0.07851 0.58883,0.706598 0.86362,1.491706 0.31404,0.785108 0.31404,1.805748 0,1.295428 -0.54957,2.39458 -0.54958,1.099151 -1.57022,1.884259 -0.98139,0.785108 -2.35533,1.256173 -1.33468,0.431809 -2.94415,0.431809 h -0.3533 q -0.11777,0 -0.43181,-0.03926 -1.02064,0.471065 -1.57021,0.863619 -0.51032,0.353298 -0.51032,0.785108 0,0.471065 0.86361,0.471065 l 2.82639,0.03925 q 2.27682,0.03926 3.65076,0.431809 1.37393,0.392554 2.43383,1.373939 1.72724,1.609472 1.72724,4.278839 0,2.433835 -1.60947,4.161073 -1.33469,1.413194 -3.45448,2.002025 -2.11979,0.588831 -4.47511,0.588831 -2.15905,0 -4.20033,-0.471065 -2.04128,-0.431809 -3.41522,-1.687982 -1.64873,-1.530961 -1.64873,-3.572241 0,-0.824364 0.15702,-1.295429 0.15702,-0.431809 0.31405,-0.745852 h 4.86767 q -0.15703,0.353298 -0.19628,0.588831 -0.0393,0.274788 -0.0393,0.706597 0,1.216917 0.94213,1.845004 0.98139,0.628086 2.82639,0.628086 1.02064,0 1.84501,-0.157021 0.82436,-0.117767 1.45245,-0.510321 0.58883,-0.353298 0.94212,-0.902874 0.3533,-0.51032 0.3533,-1.138406 0,-1.373939 -1.05989,-1.845004 -1.0599,-0.510321 -2.63011,-0.549576 l -2.23756,-0.03925 q -3.45448,-0.03926 -4.82842,-0.628087 -0.70659,-0.274788 -1.1384,-0.942129 -0.39256,-0.667342 -0.39256,-1.687983 0,-0.471064 0.11777,-0.942129 0.11777,-0.471065 0.47106,-0.902875 0.39256,-0.431809 1.09916,-0.824363 0.74585,-0.392554 2.00202,-0.706597 -4.31809,-1.099151 -4.31809,-5.574267 0,-1.530961 0.58883,-2.787134 0.62808,-1.256173 1.72724,-2.119791 1.09915,-0.902875 2.66936,-1.373939 1.57022,-0.510321 3.49373,-0.510321 0.86362,0 1.68799,0.117766 0.82436,0.117767 1.92351,0.392555 0.82436,0.196277 1.37394,0.314043 0.58883,0.117766 1.09915,0.117766 1.09915,0 2.15905,-0.431809 1.09915,-0.471065 2.00202,-1.295429 z m -9.30353,4.278839 q 0,-1.413194 -0.86362,-2.198302 -0.82437,-0.785108 -2.31607,-0.785108 -1.49171,0 -2.31607,0.785108 -0.82436,0.785108 -0.82436,2.198302 0,1.530961 0.86361,2.198303 0.86362,0.667341 2.23756,0.667341 3.21895,0 3.21895,-2.865644 z m 15.62363,5.220969 v 0.157021 q 0,2.355324 1.09915,3.611497 1.09915,1.256173 3.14043,1.256173 2.66937,0 5.10321,-2.002025 l 2.04128,3.140432 q -3.41522,2.787133 -7.5763,2.787133 -2.15904,0 -3.92554,-0.745852 -1.76649,-0.745853 -3.02266,-2.080537 -1.21692,-1.373939 -1.88426,-3.297453 -0.66734,-1.923515 -0.66734,-4.278839 0,-2.708623 0.58883,-4.592882 0.58883,-1.88426 1.92351,-3.375965 1.25617,-1.373939 2.78714,-2.041281 1.53096,-0.667342 3.53298,-0.667342 1.76649,0 3.29746,0.549576 1.53096,0.549576 2.51234,1.570216 1.37394,1.413195 2.00203,3.532986 0.66734,2.080537 0.66734,5.260224 v 1.216918 z m 6.1631,-4.082562 q 0,-1.138407 -0.15702,-1.805749 -0.11777,-0.667341 -0.47107,-1.216917 -0.78511,-1.177662 -2.31607,-1.177662 -1.4917,0 -2.31607,1.138406 -0.82436,1.099152 -0.82436,3.218943 v 0.07851 h 6.08459 z m 20.2558,12.483218 v -13.072049 q 0,-1.727238 -0.39256,-2.316069 -0.3533,-0.628086 -1.37394,-0.628086 -0.78511,0 -1.76649,0.51032 -0.98139,0.471065 -1.88426,1.295428 v 14.210456 h -5.26022 v -14.563754 q 0,-1.295429 -0.19628,-2.473091 -0.15702,-1.216917 -0.51032,-2.237558 l 4.67139,-1.334683 q 0.74585,1.295428 0.74585,2.512345 0.58884,-0.431809 1.09916,-0.785108 0.54957,-0.353298 1.21691,-0.706597 0.78511,-0.431809 1.72724,-0.628086 0.98139,-0.235533 1.88426,-0.235533 1.68798,0 3.02267,0.824364 1.33468,0.785108 1.80574,2.080536 0.39256,1.059896 0.39256,2.865644 v 14.681521 z"
             id="path20" />
          <path
             style="font-family:'Meta Pro';-inkscape-font-specification:'Meta Pro'"
             d="m 351.00827,-79.69904 q -1.45244,0.94213 -3.49373,1.491705 -2.00202,0.549576 -4.08256,0.549576 -5.14246,0 -8.28289,-3.375965 -1.72723,-1.884259 -2.5516,-4.396605 -0.78511,-2.551601 -0.78511,-6.045331 0,-3.886285 1.02064,-6.634163 1.02064,-2.787137 3.14044,-4.671397 2.82639,-2.5516 7.02671,-2.5516 4.27884,0 7.38002,2.66937 l -1.45245,2.00203 q -1.64873,-1.13841 -2.98341,-1.60948 -1.29543,-0.47106 -2.86565,-0.47106 -2.35532,0 -4.12181,1.09915 -1.7665,1.09915 -2.59086,3.454476 -1.0599,3.022666 -1.0599,6.83044 0,2.669367 0.47107,4.749903 0.51032,2.080537 1.41319,3.41522 0.47107,0.667342 1.17767,1.216918 0.70659,0.51032 1.57021,0.902874 0.86362,0.353299 1.84501,0.549576 0.98138,0.196277 1.92351,0.196277 2.5516,0 4.27884,-1.059896 v -8.204379 h -5.41725 l -0.62808,-2.669367 h 9.06799 z m 28.34236,1.609472 v -14.445988 q 0,-2.865645 -2.51234,-2.865645 -1.33469,0 -2.51235,0.824364 -1.13841,0.785108 -2.66937,2.198302 v 14.288967 h -3.10117 v -13.896413 q 0,-0.902874 -0.11777,-1.491705 -0.11777,-0.588831 -0.43181,-1.02064 -0.66734,-0.785108 -2.00203,-0.785108 -1.1384,0 -2.31606,0.628086 -1.13841,0.588831 -2.66937,1.96277 v 14.60301 h -2.94416 v -15.152585 q 0,-1.88426 -0.31404,-2.9049 -0.27479,-1.059896 -0.39255,-1.256173 l 2.98341,-0.706597 q 0.11776,0.235532 0.39255,1.138406 0.31404,0.863619 0.31404,1.766493 0.47107,-0.549575 1.13841,-1.059895 0.66734,-0.549576 1.41319,-0.94213 0.78511,-0.431809 1.57022,-0.667342 0.82436,-0.274788 1.57022,-0.274788 1.45245,0 2.70862,0.863619 1.29543,0.824364 1.845,2.39458 1.4132,-1.491706 3.10118,-2.355324 1.68798,-0.902875 3.17969,-0.902875 2.1983,0 3.53298,1.491706 1.37394,1.452449 1.37394,3.807774 v 14.760031 z m 26.37965,-10.049383 q 0,2.355324 -0.54958,4.318094 -0.54957,1.923515 -1.57021,3.297454 -1.02064,1.373939 -2.47309,2.159047 -1.4132,0.745852 -3.17969,0.745852 -1.53096,0 -3.06192,-0.745852 -1.49171,-0.745853 -2.31607,-1.845004 -0.0785,0.628086 -0.15702,1.099151 -0.0785,0.43181 -0.39256,1.020641 h -3.06192 q 0.31404,-0.706598 0.43181,-1.766494 0.15702,-1.099151 0.15702,-3.101176 v -19.235152 q 0,-1.72723 -0.23553,-2.74787 -0.19628,-1.0599 -0.27479,-1.25618 l 3.06192,-0.58883 q 0.0785,0.23554 0.27479,1.45245 0.23553,1.17766 0.23553,3.17969 v 4.553627 q 0,0.667342 -0.0392,1.334684 -0.0393,0.628086 -0.0393,0.824363 1.45245,-1.413194 2.74788,-2.002025 1.29543,-0.628087 2.86565,-0.628087 1.76649,0 3.14043,0.706597 1.41319,0.667342 2.39458,1.96277 0.98138,1.295429 1.4917,3.140433 0.54958,1.845003 0.54958,4.121817 z m -3.41522,-0.196277 q 0,-1.96277 -0.27479,-3.179688 -0.23553,-1.216917 -0.86362,-2.080536 -0.54957,-0.785108 -1.57021,-1.216918 -0.98139,-0.471064 -2.1198,-0.471064 -1.45245,0 -2.78713,0.745852 -1.33468,0.706597 -2.11979,1.805749 v 10.049383 q 0.78511,1.02064 2.11979,1.687982 1.33468,0.667342 2.70862,0.667342 1.02064,0 2.00203,-0.471065 0.98138,-0.471065 1.53096,-1.256173 0.54957,-0.785108 0.94213,-2.276813 0.43181,-1.530961 0.43181,-4.004051 z m 24.18131,10.24566 v -13.032794 h -11.34481 v 13.032794 h -3.14044 v -26.929202 h 3.14044 v 11.266296 h 11.34481 v -11.266296 h 3.21894 v 26.929202 z"
             id="path21" />
        </g>
        <path
           style="opacity:1;fill:#bf0000;fill-opacity:1;fill-rule:evenodd;stroke:none;stroke-width:1.10323"
           d="M 6.0569773,-876.84834 H 39.005079 V -903.3807 H 6.0569773 Z"
           id="path218-1-0" />
        <path
           style="font-size:39.2554px;line-height:1;font-family:'Meta Pro';-inkscape-font-specification:'Meta Pro';white-space:pre;fill:#a8a8a8"
           d="m -83.823881,-113.78569 q -0.706597,0.3533 -2.316069,0.3533 -0.628086,0 -1.334683,-0.23554 -0.706597,-0.19627 -1.413195,-0.51032 -0.667342,-0.27478 -1.295428,-0.62808 -0.628086,-0.3533 -1.099151,-0.66734 -1.020641,-0.62809 -1.727238,-1.02064 -0.706597,-0.3533 -1.334684,-0.62809 -0.588831,-0.23553 -1.216917,-0.39256 -0.588831,-0.11776 -1.413194,-0.27478 -2.512346,0 -4.31809,-1.02064 -1.80575,-1.02064 -3.02267,-2.39458 -3.2582,-3.72927 -3.2582,-10.67747 0,-3.21895 0.74585,-5.77055 0.74586,-2.5516 2.1198,-4.31809 1.37393,-1.80575 3.37596,-2.74788 2.002025,-0.98138 4.475116,-0.98138 1.570216,0 2.865644,0.35329 1.334684,0.3533 2.39458,0.98139 1.059895,0.58883 1.845003,1.41319 0.824364,0.78511 1.373939,1.64873 1.256173,1.96277 1.845004,4.35735 0.628087,2.35532 0.628087,5.61352 0,3.88629 -0.981385,6.47714 -0.94213,2.55161 -2.983411,4.47512 -0.824363,0.74585 -1.727237,1.29543 0.824363,0.27479 1.805748,0.82436 1.02064,0.58883 1.805749,1.02064 0.549575,0.31405 1.452449,0.7066 0.94213,0.39255 2.159047,0.39255 0.549576,0 0.981385,-0.0785 0.471065,-0.0392 0.628087,-0.11776 z m -5.692033,-17.0761 q 0,-2.98341 -0.353299,-5.06395 -0.314043,-2.08054 -0.981385,-3.49373 -0.314043,-0.66734 -0.824363,-1.33468 -0.51032,-0.66735 -1.256173,-1.17767 -0.706597,-0.54957 -1.687982,-0.86361 -0.94213,-0.31405 -2.237558,-0.31405 -1.88426,0 -3.415216,0.86362 -1.49171,0.86362 -2.27682,2.27681 -0.74585,1.33469 -1.09915,3.14044 -0.3533,1.76649 -0.3533,4.27884 0,3.06192 0.47107,5.53501 0.51032,2.47309 1.29543,3.84703 0.7851,1.33468 2.35532,2.11979 1.609471,0.78511 3.375964,0.78511 1.648727,0 2.865645,-0.54958 1.216917,-0.58883 2.119791,-1.76649 0.510321,-0.62809 0.863619,-1.4132 0.392554,-0.7851 0.628087,-1.76649 0.274787,-0.98138 0.392554,-2.23756 0.117766,-1.25617 0.117766,-2.86564 z m 9.853097,12.56173 v -26.92921 h 3.140432 v 26.92921 z m 28.656459,-1.60947 q -1.45245,0.94212 -3.493731,1.4917 -2.002025,0.54958 -4.082562,0.54958 -5.142457,0 -8.282889,-3.37597 -1.727238,-1.88426 -2.551602,-4.3966 -0.785108,-2.5516 -0.785108,-6.04534 0,-3.88628 1.020641,-6.63416 1.02064,-2.78713 3.140432,-4.67139 2.826389,-2.5516 7.026717,-2.5516 4.278839,0 7.380015,2.66937 l -1.452449,2.00202 q -1.648727,-1.13841 -2.983411,-1.60947 -1.295428,-0.47107 -2.865644,-0.47107 -2.355324,0 -4.121817,1.09916 -1.766494,1.09915 -2.590857,3.45447 -1.059896,3.02267 -1.059896,6.83044 0,2.66937 0.471065,4.7499 0.51032,2.08054 1.413194,3.41522 0.471065,0.66735 1.177662,1.21692 0.706598,0.51032 1.570217,0.90288 0.863618,0.35329 1.845003,0.54957 0.981385,0.19628 1.923515,0.19628 2.551601,0 4.278839,-1.0599 v -8.20438 h -5.417246 l -0.628086,-2.66936 h 9.067998 z"
           id="text145-6-3"
           transform="matrix(0.32567673,0,0,0.32567673,48.4254,-847.40603)"
           aria-label="QIG" />
      </g>
    </g>
  </g>
</svg>
