<?xml version="1.0" encoding="UTF-8"?><svg id="Ebene_1" xmlns="http://www.w3.org/2000/svg" viewBox="0 0 127.56 25.95"><defs><style>.cls-1{fill:#002343;stroke-width:0px;}</style></defs><path class="cls-1" d="M120.78,25.83h2.26v-12.84h4.52v-2.14h-11.29v2.14h4.52v12.84ZM107.07,17.75v-4.75h3.68c.3,0,.59.06.86.19.27.13.51.3.71.51.21.21.37.46.5.75.13.29.19.59.19.93s-.06.64-.19.93c-.13.29-.29.53-.5.75-.21.21-.44.38-.71.51-.27.13-.55.19-.86.19h-3.68ZM104.81,25.83h2.26v-5.94h2.61l3.45,5.94h2.5l-3.68-6.18c.62-.19,1.17-.48,1.66-.86.41-.32.79-.75,1.14-1.3.35-.55.52-1.26.52-2.13,0-.62-.12-1.2-.36-1.76-.24-.55-.56-1.03-.96-1.44s-.88-.73-1.44-.96c-.55-.24-1.14-.36-1.76-.36h-5.94v14.98ZM92.23,25.83h10.1v-2.14h-7.84v-4.52h7.01v-2.14h-7.01v-4.04h7.61v-2.14h-9.87v14.98ZM76.77,25.83h1.55l3.09-9.98,3.09,9.98h1.55l4.64-14.98h-2.26l-3.21,10.34-3.09-10.34h-1.43l-3.09,10.34-3.21-10.34h-2.26l4.64,14.98ZM67.34,25.53c.68-.28,1.27-.67,1.77-1.16.5-.5.89-1.09,1.16-1.77.28-.68.42-1.43.42-2.23v-9.51h-2.26v9.51c0,.54-.08,1.03-.25,1.46-.17.44-.4.81-.7,1.12-.3.31-.65.55-1.06.72-.4.17-.84.26-1.32.26s-.92-.09-1.32-.26c-.4-.17-.76-.42-1.06-.72-.3-.31-.53-.68-.7-1.12-.17-.44-.25-.92-.25-1.46v-9.51h-2.26v9.51c0,.81.14,1.55.42,2.23.28.68.67,1.27,1.16,1.77.5.5,1.09.89,1.77,1.16.68.28,1.43.42,2.23.42s1.55-.14,2.23-.42M49.96,20.24l2.14-5.94,2.14,5.94h-4.28ZM45.44,25.83h2.38l1.31-3.45h5.94l1.31,3.45h2.38l-5.7-14.98h-1.9l-5.71,14.98ZM36.5,17.04v-4.04h3.68c.6,0,1.11.2,1.52.61.41.4.62.88.62,1.41s-.21,1.01-.62,1.41c-.41.4-.92.61-1.52.61h-3.68ZM36.5,23.69v-4.75h3.8c.35,0,.68.06.99.19.31.13.57.3.8.51.22.21.4.46.52.75.13.29.19.59.19.93s-.06.64-.19.93c-.13.29-.3.53-.52.75-.22.21-.49.38-.8.51-.31.13-.64.19-.99.19h-3.8ZM34.24,25.83h6.06c.68,0,1.31-.12,1.89-.36.58-.24,1.08-.55,1.51-.94.43-.39.76-.84,1-1.36.24-.51.36-1.06.36-1.63,0-.67-.11-1.23-.33-1.69-.22-.46-.47-.84-.74-1.14-.32-.35-.67-.63-1.07-.86.29-.19.54-.43.76-.71.19-.24.37-.53.53-.89.17-.36.25-.77.25-1.25,0-.57-.11-1.11-.33-1.6-.22-.5-.53-.94-.92-1.32-.39-.38-.84-.68-1.37-.9-.52-.22-1.08-.33-1.66-.33h-5.94v14.98Z"/><path class="cls-1" d="M11.98,25.83H0v-15L11.98,0v25.83ZM2.14,23.69h7.7V4.82l-7.7,6.96v11.91Z"/><path class="cls-1" d="M26.19,25.83h-11.98V0l11.98,10.83v15ZM16.35,23.69h7.7v-11.91l-7.7-6.96v18.87Z"/></svg>