<?xml version="1.0" encoding="UTF-8"?>
<!DOCTYPE svg PUBLIC "-//W3C//DTD SVG 1.1//EN" "http://www.w3.org/Graphics/SVG/1.1/DTD/svg11.dtd">
<!-- Creator: CorelDRAW -->
<svg xmlns="http://www.w3.org/2000/svg" xml:space="preserve" width="1812px" height="1812px" style="shape-rendering:geometricPrecision; text-rendering:geometricPrecision; image-rendering:optimizeQuality; fill-rule:evenodd; clip-rule:evenodd"
viewBox="0 0 1905.42 1905.46"
 xmlns:xlink="http://www.w3.org/1999/xlink">
 <defs>
  <style type="text/css">
   <![CDATA[
    .str0 {stroke:white;stroke-width:6.20801}
    .fil3 {fill:none;fill-rule:nonzero}
    .fil1 {fill:#004A80;fill-rule:nonzero}
    .fil2 {fill:#FDB813;fill-rule:nonzero}
    .fil0 {fill:white;fill-rule:nonzero}
   ]]>
  </style>
 </defs>
 <g id="Ebene_x0020_1">
  <metadata id="CorelCorpID_0Corel-Layer"/>
  <polygon class="fil0" points="3.10462,1902.35 1902.32,1902.35 1902.32,3.10462 3.10462,3.10462 "/>
  <polygon class="fil1" points="24.8569,1881.16 1879.84,1881.16 1879.84,26.1981 24.8569,26.1981 "/>
  <path class="fil2" d="M743.405 87.5665l0 648.134c-2.49984,-0.715305 -13.0667,-7.75659 -43.4846,-7.75659 -28.3253,0 -68.5339,28.2359 -112.947,28.2359 -47.0375,0 -85.248,-30.886 -127.232,-30.886 -23.7479,0 -52.6383,11.8472 -63.2673,16.5476l0 58.4427c10.629,-4.30177 39.5194,-15.0189 63.2673,-15.0189 39.9255,0 78.1719,29.6678 127.232,29.6678 38.3359,0 81.972,-25.3747 112.947,-25.3747 26.778,0 40.3315,9.56845 43.4846,11.5393l0 42.6377c-2.49984,-0.689226 -13.0667,-7.79261 -43.4846,-7.79261 -28.3253,0 -68.5339,28.2633 -112.947,28.2633 -47.0375,0 -85.248,-30.8525 -127.232,-30.8525 -23.7479,0 -52.6383,11.8485 -63.2673,16.5489l0 58.4079c10.629,-4.26699 39.5194,-15.0202 63.2673,-15.0202 39.9255,0 78.1719,29.7038 127.232,29.7038 38.3359,0 81.972,-25.4008 112.947,-25.4008 26.778,0 40.3315,9.59453 43.4846,11.5293l0 136.668 -171.672 0 0 0.345234 357.402 216.775 0.0620925 -1175.34 -185.792 0z"/>
  <path class="fil2" d="M157.637 1342.86l191.869 0c64.1428,0 107.09,23.281 107.09,92.1937 0,53.5125 -30.7643,87.4833 -82.6873,98.5805l0 1.12139c57.7547,9.0121 86.9282,31.2325 86.9282,90.5408 0,76.3613 -49.8391,110.809 -124.079,110.809l-179.121 0 0 -393.245zm102.849 306.318l55.6075 0c24.9326,0 40.8258,-13.253 41.8863,-33.9186 0,-24.8693 -15.3642,-38.1757 -39.2102,-38.1757l-58.2837 0 0 72.0943zm0.53027 -146.272l46.0652 0c23.8808,0 46.6575,-10.0366 46.6575,-35.4995 0,-26.4961 -13.2431,-37.6541 -37.6454,-37.6541l-55.0773 0 0 73.1536z"/>
  <path class="fil2" d="M568.11 1342.86l159.021 0 105.534 393.245 -107.655 0 -22.2552 -84.7811 -116.595 0 -21.222 84.7811 -104.385 0 107.557 -393.245zm79.0114 70.963l-1.06054 0 -37.0891 147.394 69.9472 0 -31.7976 -147.394z"/>
  <path class="fil2" d="M1140.1 1597.24c0,89.3573 -51.579,145.062 -156.15,145.062 -104.597,0 -156.123,-55.7044 -156.123,-145.062l0 -254.385 100.957 0 0 246.47c0,41.551 25.525,60.5017 55.1654,60.5017 29.7038,0 55.2015,-18.9506 55.2015,-60.5017l0 -246.47 100.949 0 0 254.385z"/>
  <polygon class="fil2" points="1167.75,1342.86 1430.16,1342.86 1430.16,1439.29 1264.25,1439.29 1264.25,1492.34 1430.16,1492.34 1430.16,1585.55 1264.25,1585.55 1264.25,1642.84 1430.16,1642.84 1430.16,1736.1 1167.75,1736.1 "/>
  <path class="fil2" d="M1456.09 1342.86l173.29 0c65.7671,0 131.994,10.5582 131.994,104.906 0,76.3613 -50.2974,116.596 -103.881,116.596l114.544 171.743 -123.018 0 -89.0481 -155.841 -1.06054 0 0 155.841 -102.821 0 0 -393.245zm102.821 170.613l60.4048 0c24.4023,0 39.2362,-17.4231 39.2362,-39.7404 0,-32.2918 -19.6312,-37.6541 -47.1866,-37.6541l-52.4545 0 0 77.3945z"/>
  <path class="fil2" d="M1161.14 87.5665l0 648.134c2.56194,-0.680534 13.0667,-7.75659 43.5132,-7.75659 28.2719,0 68.5414,28.2099 112.919,28.2099 47.0028,0 85.2492,-30.86 127.232,-30.86 23.7752,0 52.6395,11.8472 63.3294,16.5476l0 58.4427c-10.6898,-4.30177 -39.5541,-15.0189 -63.3294,-15.0189 -39.8981,0 -78.1719,29.6678 -127.232,29.6678 -38.3347,0 -81.9708,-25.3747 -112.919,-25.3747 -26.7705,0 -40.3328,9.56845 -43.5132,11.5393l0 42.6377c2.56194,-0.689226 13.0667,-7.79261 43.5132,-7.79261 28.2719,0 68.5414,28.2633 112.919,28.2633 47.0028,0 85.2492,-30.8525 127.232,-30.8525 23.7752,0 52.6395,11.8485 63.3294,16.5489l0 58.4079c-10.6898,-4.30301 -39.5541,-15.0202 -63.3294,-15.0202 -39.8981,0 -78.1719,29.7038 -127.232,29.7038 -38.3347,0 -81.9708,-25.4008 -112.919,-25.4008 -26.7705,0 -40.3328,9.59453 -43.5132,11.5293l0 136.668 171.673 0 0 0.345234 -357.428 216.775 -0.0360136 -1175.34 185.791 0z"/>
  <polygon class="fil3 str0" points="3.10462,3.10462 1902.32,3.10462 1902.32,1902.35 3.10462,1902.35 "/>
 </g>
</svg>
